<?xml version="1.0" standalone="no"?>
<!DOCTYPE svg PUBLIC "-//W3C//DTD SVG 20010904//EN"
 "http://www.w3.org/TR/2001/REC-SVG-20010904/DTD/svg10.dtd">
<svg version="1.0" xmlns="http://www.w3.org/2000/svg"
 width="300.000000pt" height="294.000000pt" viewBox="0 0 300.000000 294.000000"
 preserveAspectRatio="xMidYMid meet">
<metadata>
Created by potrace 1.10, written by Peter Selinger 2001-2011
</metadata>
<g transform="translate(0.000000,294.000000) scale(0.100000,-0.100000)"
fill="#000000" stroke="none">
<path d="M2228 2443 c18 -2 45 -2 60 0 15 2 0 4 -33 4 -33 0 -45 -2 -27 -4z"/>
<path d="M1340 2413 c-40 -8 -152 -41 -190 -56 -19 -8 -50 -20 -67 -26 -18 -7
-33 -17 -33 -23 0 -5 -4 -7 -9 -4 -5 3 -14 -1 -21 -9 -7 -8 -17 -15 -22 -15
-36 0 -270 -219 -309 -288 -11 -21 -35 -64 -54 -97 -19 -33 -35 -73 -35 -88 0
-15 -7 -30 -15 -33 -8 -4 -12 -10 -9 -15 9 -15 -5 -29 -22 -22 -13 5 -13 7 -2
14 10 6 10 11 1 20 -9 9 -16 9 -28 -1 -15 -13 -21 -32 -7 -28 6 2 48 -17 60
-27 2 -1 -5 -19 -15 -39 -11 -24 -26 -39 -43 -42 -43 -10 -47 -14 -7 -10 28 4
37 1 37 -10 0 -8 -3 -13 -7 -12 -20 6 -53 -25 -53 -49 0 -23 -2 -24 -17 -12
-11 9 -14 10 -9 2 4 -7 9 -43 11 -80 2 -38 1 -57 -3 -44 -4 14 -13 26 -20 29
-16 5 -16 -25 1 -31 6 -2 8 -8 4 -13 -4 -5 -12 -2 -17 6 -11 18 -11 20 -15
-48 -4 -53 -3 -54 21 -48 14 4 24 2 24 -5 0 -6 7 -17 15 -25 17 -18 20 -54 5
-54 -7 0 -7 -6 0 -19 13 -25 13 -31 -3 -31 -18 0 -38 36 -30 56 5 14 3 14 -16
3 -24 -16 -28 -29 -7 -29 15 0 30 -27 17 -32 -5 -2 -5 -12 0 -23 7 -19 8 -18
8 4 1 19 4 21 15 12 22 -19 9 -49 -20 -43 -19 3 -24 11 -24 33 0 16 -4 29 -10
29 -5 0 -10 7 -10 15 0 17 -9 19 -30 5 -10 -6 -11 -10 -2 -10 6 0 12 -7 12
-15 0 -9 6 -18 14 -21 8 -3 17 -17 20 -30 5 -20 11 -24 28 -18 13 4 18 2 14
-4 -3 -6 -2 -13 4 -17 5 -3 10 -2 10 2 0 5 7 18 16 29 14 18 15 17 11 -21 -3
-22 -3 -34 0 -27 2 6 11 12 19 12 17 0 19 17 3 22 -16 5 -25 138 -9 138 6 0
10 -6 9 -12 -3 -27 1 -58 9 -58 4 0 7 12 6 28 -1 15 -3 33 -3 40 -1 6 -7 12
-15 12 -8 0 -17 7 -20 16 -5 14 -4 15 8 5 11 -9 15 -8 20 4 5 14 -6 19 -41 18
-8 0 -9 6 0 24 8 17 7 27 -1 35 -9 9 -14 5 -21 -13 -8 -21 -16 -12 -12 14 0 4
-4 7 -9 7 -6 0 -10 4 -10 9 0 5 11 8 24 5 14 -2 28 1 31 7 11 17 8 78 -4 93
-9 10 -8 15 5 20 9 4 14 12 10 22 -3 9 -2 12 5 8 6 -3 9 -15 6 -25 -3 -11 -2
-19 1 -19 4 0 8 -37 10 -82 2 -46 6 -85 10 -88 4 -3 8 -10 9 -17 1 -6 5 -26 8
-44 10 -58 27 -70 20 -14 -12 95 -23 243 -19 272 1 15 6 51 9 78 8 69 14 85
33 86 14 0 13 2 -3 10 -18 8 -17 9 6 6 21 -3 25 0 21 15 -3 14 -7 16 -18 7
-11 -9 -14 -8 -14 4 0 9 19 24 44 35 24 11 47 26 52 33 4 7 -9 3 -30 -9 -21
-13 -41 -20 -44 -18 -8 9 47 132 89 197 52 80 190 222 264 271 175 117 329
162 545 161 154 -1 274 -30 406 -96 152 -77 251 -162 356 -309 62 -86 96 -158
134 -283 25 -81 28 -105 28 -245 0 -128 -3 -168 -21 -230 -11 -41 -24 -88 -27
-104 -6 -23 -9 -27 -16 -15 -11 17 -42 2 -46 -22 -1 -12 5 -15 22 -11 13 2 24
0 24 -4 0 -5 -30 -10 -68 -12 l-67 -3 0 116 c0 101 2 116 18 121 33 10 17 20
-33 20 -39 0 -47 -2 -38 -13 6 -7 16 -13 23 -13 15 0 25 -31 25 -82 l0 -38
-20 20 c-11 11 -20 27 -20 35 0 18 -16 20 -23 3 -4 -10 -6 -10 -6 0 -1 6 -5
12 -11 12 -5 0 -7 -17 -4 -41 4 -29 3 -39 -5 -35 -7 5 -9 1 -5 -8 3 -9 2 -16
-3 -16 -5 0 -7 -15 -5 -33 6 -51 -12 -59 -112 -51 -47 4 -83 10 -81 15 9 14
-17 22 -27 8 -6 -9 -7 -6 -1 11 4 14 8 42 8 63 0 20 3 37 8 37 4 0 7 -7 7 -15
0 -18 12 -19 28 -3 18 18 15 24 -18 38 -21 9 -30 19 -30 36 0 22 -48 75 -86
97 -8 4 -14 18 -13 30 0 21 1 21 9 2 5 -11 9 -14 9 -7 1 7 -10 30 -24 51 -20
29 -33 38 -55 39 -27 1 -29 -3 -36 -45 -6 -41 -4 -49 16 -65 13 -10 20 -21 17
-25 -4 -3 -13 -1 -20 5 -27 23 -27 -2 0 -30 14 -15 24 -30 21 -33 -3 -3 -20
11 -39 32 -28 33 -39 38 -76 38 -49 0 -78 -23 -88 -70 -5 -24 -4 -27 5 -15 10
12 11 11 7 -8 -3 -14 -1 -20 6 -15 6 4 8 0 4 -10 -8 -21 17 -40 52 -39 34 1
103 40 95 54 -4 6 -10 6 -17 -1 -14 -14 -47 -14 -47 -1 0 6 10 10 23 10 20 1
21 1 4 11 -15 9 -22 7 -34 -11 -14 -20 -16 -20 -34 -4 -26 24 -24 39 8 53 22
10 29 10 38 -1 30 -38 97 -53 116 -26 7 11 39 -1 39 -14 0 -5 -9 -6 -20 -3
-11 3 -20 2 -20 -3 0 -5 -9 -12 -20 -15 -24 -6 -27 -42 -5 -51 27 -10 47 5 40
31 -5 21 -3 23 22 17 16 -3 35 -8 43 -11 8 -4 24 -5 35 -4 17 3 17 1 5 -13 -9
-12 -16 -14 -24 -6 -5 5 -21 10 -34 10 -32 0 -23 -25 9 -25 18 -1 23 -6 21
-20 -2 -11 -6 -35 -9 -53 -8 -52 -27 -53 -20 -1 5 38 3 47 -14 57 -13 9 -25 9
-37 3 -16 -9 -16 -10 1 -17 44 -16 41 -84 -4 -84 -60 0 -102 57 -72 100 19 28
9 41 -22 27 -26 -12 -26 -13 -9 -76 5 -17 4 -22 -4 -17 -7 4 -12 15 -12 26 0
21 -26 34 -36 19 -9 -16 16 -57 40 -66 30 -11 -95 -19 -228 -14 -67 2 -103 7
-95 12 11 7 10 9 -3 9 -26 0 -22 12 12 45 16 15 27 31 25 35 -3 5 2 11 11 14
8 3 13 10 10 15 -8 13 4 42 15 35 5 -3 6 2 3 10 -3 9 -1 16 6 16 6 0 10 8 9
18 -1 9 0 19 1 22 1 3 3 29 4 58 2 35 0 49 -6 40 -7 -9 -8 -4 -5 14 2 15 1 26
-3 23 -3 -2 -15 21 -25 51 -34 100 -40 75 -14 -57 15 -76 7 -154 -21 -205 -39
-68 -39 -69 -80 -29 -20 19 -42 35 -49 35 -6 0 -9 5 -6 10 3 6 -3 10 -14 10
-18 0 -15 -6 19 -36 39 -35 86 -101 78 -109 -2 -2 -20 16 -40 41 -34 42 -88
91 -88 81 0 -3 16 -25 35 -49 19 -23 39 -48 44 -54 4 -5 14 -20 20 -32 10 -18
9 -23 -4 -28 -22 -9 -72 0 -138 26 -31 12 -63 20 -70 17 -22 -8 126 -71 171
-73 24 -1 46 -5 49 -8 4 -3 13 -6 22 -5 12 0 10 3 -4 8 -33 13 113 24 234 18
58 -4 95 -3 81 2 -20 6 -15 9 30 12 33 3 65 0 80 -8 34 -17 51 -16 110 6 27
11 50 15 50 11 0 -5 -16 -14 -35 -21 -19 -7 -35 -17 -35 -21 0 -13 23 -9 60
10 29 14 53 16 145 12 61 -3 115 -3 120 1 16 10 65 17 60 8 -7 -10 84 -29 137
-29 60 0 43 7 -37 15 -101 10 -94 16 13 14 51 -2 92 -7 92 -11 0 -4 5 -8 11
-8 5 0 7 5 3 12 -5 8 7 10 44 5 56 -6 66 -2 30 13 -17 6 -19 9 -6 9 11 1 15 6
12 15 -3 8 0 17 7 21 9 6 10 0 7 -19 -4 -17 -1 -25 6 -23 6 3 10 10 8 16 -1 6
5 11 13 11 8 0 15 5 15 11 0 5 -4 7 -10 4 -6 -3 -10 0 -10 8 0 8 6 17 14 20 9
4 12 14 9 26 -4 15 -1 21 11 21 9 0 16 4 16 10 0 5 -7 6 -17 3 -11 -4 -14 -3
-9 5 4 7 16 12 27 12 10 0 19 4 19 10 0 6 -9 6 -25 0 -14 -5 -25 -7 -25 -4 0
14 22 44 33 44 8 0 7 -4 -3 -10 -12 -7 -10 -9 7 -7 12 0 20 3 18 5 -8 8 55 53
64 47 12 -7 -20 -44 -31 -38 -10 5 -9 -6 2 -32 7 -15 9 -16 9 -4 1 9 11 29 23
44 15 20 18 30 10 33 -7 2 -12 8 -12 14 0 6 7 8 15 5 8 -4 17 -2 20 3 10 17
-27 11 -47 -7 -12 -10 -18 -12 -18 -4 0 7 -5 9 -10 6 -6 -4 -9 -14 -8 -22 2
-10 -6 -17 -22 -19 -20 -3 -22 -2 -10 7 13 9 13 11 1 16 -10 4 -8 9 10 19 24
13 24 13 2 14 -20 0 -41 -31 -35 -53 1 -4 -5 -10 -13 -13 -8 -3 -13 -9 -11
-13 3 -4 0 -13 -5 -21 -8 -13 -12 -12 -24 4 -18 24 -19 37 -2 31 19 -7 52 45
40 64 -11 18 -6 41 8 41 6 0 7 -4 4 -10 -3 -5 -1 -10 4 -10 6 0 11 6 11 14 0
8 6 16 13 19 6 2 4 3 -5 2 -10 -2 -18 1 -18 6 0 5 4 9 8 9 5 0 17 7 28 15 19
15 19 15 -1 9 -17 -5 -17 -3 4 14 22 18 25 18 42 3 11 -8 19 -21 19 -28 0 -7
5 -13 10 -13 17 0 11 -28 -7 -33 -11 -3 -7 -5 10 -6 34 -1 34 13 2 55 -14 18
-25 35 -25 37 0 2 11 3 25 2 20 -3 25 1 25 20 0 13 -5 27 -11 31 -8 4 -9 0 -4
-15 6 -20 3 -21 -34 -19 -31 2 -41 7 -41 21 0 9 4 17 10 17 5 0 7 7 3 16 -5
13 -2 15 15 10 11 -4 23 -3 26 3 8 12 -20 22 -39 15 -11 -5 -15 1 -15 19 0 13
7 30 15 37 8 7 15 17 15 22 0 6 -7 8 -15 4 -11 -4 -15 2 -15 24 0 20 -5 30
-15 30 -17 0 -20 -16 -5 -25 6 -3 10 -24 10 -46 0 -21 -4 -39 -10 -39 -5 0
-10 -5 -10 -11 0 -5 4 -8 9 -5 5 3 11 -4 14 -15 4 -15 0 -23 -14 -26 -23 -6
-24 -12 -3 -27 12 -9 13 -17 5 -39 -7 -17 -15 -25 -23 -21 -7 4 -8 3 -4 -4 4
-7 1 -12 -9 -12 -14 0 -14 3 -1 28 l15 29 -35 0 c-23 0 -34 -5 -34 -15 0 -9 6
-12 17 -8 16 6 16 6 0 -12 -19 -21 -5 -45 20 -35 13 5 13 2 3 -16 -9 -17 -17
-21 -33 -16 -12 4 -31 9 -42 12 -18 4 -20 13 -22 92 -2 114 -10 169 -43 271
-25 79 -81 195 -123 258 -40 59 -192 213 -243 245 -126 78 -228 121 -369 156
-34 8 -307 12 -345 4z m-795 -844 c-6 -29 -11 -32 -30 -21 -16 8 -15 11 6 26
29 20 29 20 24 -5z m1238 -164 c20 -42 21 -61 5 -71 -7 -5 -9 -2 -6 8 4 8 -2
34 -12 56 -23 51 -11 57 13 7z m736 -50 c16 -16 5 -39 -16 -31 -16 7 -53 -10
-53 -24 0 -5 7 -7 15 -4 10 4 15 0 15 -14 0 -11 6 -23 13 -26 6 -3 3 -4 -8 -3
-11 2 -19 9 -17 15 1 7 -5 12 -13 12 -18 0 -19 9 -3 60 11 33 16 39 33 34 11
-3 26 -12 34 -19z m-712 -46 c30 -19 74 -79 57 -79 -20 0 -104 66 -104 82 0
23 5 23 47 -3z m753 12 c0 -12 -31 -43 -37 -37 -7 7 16 46 27 46 6 0 10 -4 10
-9z m-104 -73 c15 -19 16 -20 2 -9 -16 12 -18 11 -19 -5 0 -11 -2 -29 -3 -41
-2 -18 0 -20 11 -12 10 9 13 6 13 -17 0 -22 -3 -25 -10 -14 -8 12 -10 12 -16
-3 -3 -9 -13 -17 -21 -17 -11 0 -13 5 -8 18 5 9 12 41 18 70 6 28 11 52 12 52
1 0 10 -10 21 -22z m73 -35 c17 -18 19 -24 7 -20 -13 5 -16 -1 -16 -34 0 -24
-4 -38 -10 -34 -6 3 -14 -4 -19 -17 -7 -16 -10 -18 -10 -6 -1 9 -5 19 -10 22
-4 3 -6 -6 -3 -20 3 -16 -1 -30 -9 -35 -20 -13 -79 -11 -79 2 0 7 9 9 21 6 13
-3 19 -1 16 6 -3 7 -10 11 -16 9 -7 -1 -10 2 -6 8 3 5 11 10 17 10 5 0 22 9
38 20 15 11 30 17 34 13 3 -3 6 -1 6 5 0 6 -5 14 -10 17 -6 4 -8 10 -6 14 3 4
1 13 -4 21 -6 10 -2 18 13 26 12 7 22 12 23 13 0 1 11 -11 23 -26z m-339 -93
c0 -20 -5 -30 -15 -30 -18 0 -18 2 -3 35 15 32 18 32 18 -5z"/>
<path d="M2491 1212 c-8 -14 -6 -24 5 -38 14 -18 15 -18 8 5 -4 14 -1 26 6 31
8 5 9 10 2 14 -6 4 -16 -2 -21 -12z"/>
<path d="M2260 2393 c-55 -32 -55 -32 -48 -39 4 -3 30 10 60 30 61 42 54 48
-12 9z"/>
<path d="M2300 2289 c-42 -18 -29 -21 14 -3 44 18 1 -18 -50 -43 -48 -23 -76
-43 -59 -43 10 0 88 41 118 62 16 11 30 18 33 16 8 -9 -21 -54 -56 -86 -19
-18 -27 -29 -17 -26 11 4 17 1 17 -7 0 -8 11 3 25 23 14 20 34 39 45 43 11 3
20 11 20 18 0 8 -3 8 -12 -1 -19 -19 -30 -14 -17 10 9 17 9 24 -5 33 -8 7 -13
15 -9 18 9 10 3 8 -47 -14z"/>
<path d="M2365 2190 c-8 -16 -19 -30 -23 -30 -8 0 -34 -61 -29 -67 5 -4 87 98
87 108 0 22 -21 16 -35 -11z"/>
<path d="M1178 2202 c9 -7 8 -13 -8 -27 -11 -10 -20 -23 -20 -28 0 -5 11 2 25
17 29 32 32 46 8 46 -13 0 -15 -2 -5 -8z"/>
<path d="M2502 2134 c16 -17 16 -19 1 -36 -16 -18 -15 -20 7 -41 21 -21 22
-21 15 -2 -13 35 -11 50 7 49 24 -2 11 21 -20 35 -26 12 -26 12 -10 -5z"/>
<path d="M2397 2095 c-49 -63 -31 -63 25 0 17 20 17 19 9 -10 -7 -28 -4 -95 5
-104 2 -2 4 11 5 30 1 38 22 105 32 102 4 -2 6 0 5 4 -2 3 -15 7 -30 7 -19 1
-34 -8 -51 -29z"/>
<path d="M950 2087 c0 -2 -5 -28 -10 -59 -7 -38 -7 -64 0 -83 9 -25 9 -27 -5
-15 -13 11 -14 10 -9 -3 3 -9 15 -15 27 -14 27 3 35 -29 10 -37 -10 -4 -29
-16 -43 -27 -14 -11 -19 -18 -13 -14 9 4 11 1 7 -9 -3 -9 -11 -13 -17 -9 -6 3
-7 1 -3 -6 4 -6 4 -25 1 -43 -5 -23 -9 -27 -16 -17 -6 9 -7 1 -3 -21 3 -20 2
-30 -3 -23 -5 7 -9 -4 -9 -29 -1 -22 -6 -43 -11 -47 -9 -6 -27 -71 -19 -71 2
0 20 15 40 34 23 23 34 40 30 51 -4 8 2 47 12 86 22 86 62 136 119 150 55 15
63 14 120 -7 69 -26 89 -43 115 -92 12 -23 26 -45 31 -48 5 -3 9 -26 9 -52 0
-50 23 -97 42 -86 6 4 8 3 5 -3 -4 -6 2 -18 12 -27 11 -10 25 -37 32 -62 7
-24 16 -44 20 -44 4 0 29 20 57 45 27 25 56 45 64 45 20 0 19 30 -1 31 -10 0
-12 2 -3 6 25 10 11 18 -32 18 -24 0 -42 3 -40 7 3 5 -15 8 -40 8 -26 0 -46
-5 -48 -12 -3 -8 -11 -3 -21 13 -13 20 -15 32 -6 62 5 20 15 37 21 37 19 0
-25 29 -44 30 -10 0 -18 5 -18 11 0 6 9 8 21 4 15 -5 19 -4 15 4 -4 6 -13 11
-21 11 -7 0 -16 9 -20 20 -3 11 -25 39 -48 62 -22 24 -37 37 -33 31 5 -9 2
-11 -8 -7 -9 3 -14 9 -11 14 2 4 -6 5 -19 3 -13 -3 -27 0 -30 6 -4 6 -19 11
-32 11 -23 0 -25 3 -19 30 5 22 0 42 -21 80 -15 27 -31 50 -36 50 -4 0 -8 -22
-8 -50 0 -37 5 -55 20 -70 25 -25 20 -34 -20 -48 -34 -12 -38 -7 -14 19 14 16
12 23 -20 88 -20 39 -41 71 -46 71 -6 0 -10 -1 -10 -3z m513 -515 c15 -6 15
-10 5 -24 -21 -27 -52 -30 -66 -8 -7 12 -10 25 -7 30 7 11 42 12 68 2z"/>
<path d="M2555 2019 l-16 -30 28 14 c15 8 35 17 43 21 8 3 3 4 -12 1 -22 -4
-26 -2 -22 10 11 27 -5 16 -21 -16z"/>
<path d="M2568 1928 c-38 -37 -52 -62 -21 -37 15 12 16 12 10 -6 -6 -20 -6
-20 6 -1 7 11 22 30 33 42 37 39 11 41 -28 2z"/>
<path d="M369 1809 c-1 -8 -1 -17 0 -21 0 -5 -3 -8 -9 -8 -5 0 -7 -6 -4 -14 3
-9 13 -12 27 -8 12 3 16 7 9 10 -6 2 -12 10 -12 18 0 8 6 11 18 7 18 -7 17 -5
-10 16 -15 11 -18 11 -19 0z"/>
<path d="M1663 1805 c-8 -9 -9 -16 -3 -20 6 -3 10 -1 10 5 0 6 6 10 14 8 8 -2
15 2 16 7 2 16 -24 16 -37 0z"/>
<path d="M1060 1807 c3 -3 25 -12 49 -21 36 -12 42 -12 30 -1 -13 14 -90 35
-79 22z"/>
<path d="M1040 1770 c0 -17 7 -20 38 -18 22 0 44 -2 50 -6 7 -4 12 -2 12 3 0
6 -1 11 -2 11 -2 0 -24 7 -50 15 -46 13 -48 13 -48 -5z"/>
<path d="M1563 1776 c19 -19 23 -31 7 -21 -5 3 -10 -1 -10 -9 0 -21 27 -9 33
15 3 10 1 19 -3 19 -5 0 -17 3 -27 7 -17 7 -17 6 0 -11z"/>
<path d="M360 1730 c8 -5 11 -10 6 -10 -5 0 -3 -7 4 -15 14 -17 4 -54 -19 -72
-9 -7 -12 -13 -7 -13 5 0 17 7 27 16 15 14 18 13 27 -14 6 -16 8 -46 5 -66 -2
-20 0 -36 5 -36 13 0 20 78 8 90 -7 7 -7 10 0 10 5 0 15 -5 22 -12 9 -9 15 -9
24 0 9 9 8 12 -7 12 -26 1 -74 40 -57 47 6 2 12 9 12 14 0 6 -4 8 -9 5 -5 -3
-14 8 -20 24 -5 17 -16 30 -23 30 -9 0 -9 -3 2 -10z"/>
<path d="M460 1731 c0 -5 -9 -7 -20 -4 -16 4 -20 1 -18 -20 1 -16 7 -23 15
-20 7 3 10 10 6 17 -4 6 1 5 10 -3 13 -10 15 -17 6 -27 -7 -9 -8 -14 -1 -14 5
0 15 14 21 31 14 39 14 36 -4 43 -8 3 -15 1 -15 -3z"/>
<path d="M1063 1728 c2 -7 8 -13 13 -13 5 0 15 -4 22 -9 17 -10 26 -1 19 19
-8 18 -61 21 -54 3z"/>
<path d="M330 1695 c0 -8 -8 -15 -17 -15 -15 0 -16 -2 -3 -10 10 -6 16 -6 18
0 6 16 20 11 24 -7 3 -15 5 -15 9 -3 3 8 -3 23 -13 33 -15 14 -18 14 -18 2z"/>
<path d="M290 1630 c-14 -9 -7 -14 13 -11 4 1 10 -6 13 -14 4 -8 13 -15 22
-15 13 0 13 2 -3 13 -10 8 -15 19 -11 25 9 14 -13 15 -34 2z"/>
<path d="M375 1611 c3 -5 -2 -16 -10 -24 -8 -9 -11 -17 -5 -19 10 -4 16 -120
7 -136 -4 -5 -1 -12 5 -15 10 -3 10 -7 1 -19 -7 -8 -10 -18 -6 -21 8 -9 32 24
33 46 0 10 7 20 15 23 8 4 15 13 15 21 0 8 5 11 10 8 7 -4 9 12 6 44 -2 28 1
48 5 45 5 -3 6 2 2 11 -10 27 -24 -5 -17 -39 4 -20 3 -26 -5 -22 -11 7 -20 -7
-25 -38 -1 -8 -5 -19 -9 -22 -6 -7 -10 36 -10 129 0 20 -4 37 -9 37 -5 0 -7
-4 -3 -9z"/>
<path d="M855 1555 c-31 -30 -53 -55 -49 -55 5 0 -1 -7 -12 -16 -10 -8 -13
-13 -7 -9 9 4 11 1 7 -9 -3 -9 -9 -14 -13 -12 -14 9 3 -90 21 -122 10 -19 16
-37 13 -40 -7 -7 -34 29 -35 46 0 6 -4 12 -10 12 -5 0 -9 3 -9 8 6 34 -3 52
-24 52 -57 0 -63 -57 -11 -106 41 -40 54 -43 47 -11 -4 20 -3 20 7 4 7 -10 9
-29 6 -42 -4 -17 0 -30 15 -44 12 -11 18 -25 14 -31 -12 -19 15 -97 42 -122
23 -22 33 -23 154 -24 l129 0 -48 24 c-26 13 -48 28 -50 33 -5 14 -56 11 -87
-5 -24 -12 -29 -12 -45 2 -9 10 -34 30 -54 45 -55 43 -43 52 14 11 28 -20 53
-34 56 -31 3 3 -15 25 -39 50 -58 61 -74 99 -56 135 7 15 15 31 17 35 3 5 -5
4 -17 -2 -13 -7 -21 -8 -21 -2 0 6 10 16 23 22 33 18 90 69 75 69 -7 0 -31
-14 -52 -30 -46 -35 -56 -37 -56 -11 0 33 28 87 80 155 27 36 50 68 50 71 0
15 -24 -1 -75 -50z"/>
<path d="M297 1593 c-2 -5 -1 -19 2 -32 6 -21 8 -22 20 -8 11 14 11 19 -2 32
-9 8 -18 12 -20 8z"/>
<path d="M640 1555 c0 -14 5 -25 10 -25 6 0 10 2 10 4 0 2 3 11 6 19 3 8 -2
17 -10 20 -12 5 -16 0 -16 -18z"/>
<path d="M332 1529 c-8 -12 -9 -18 -3 -14 6 3 11 -1 11 -10 0 -9 -5 -13 -11
-9 -6 3 -4 -5 5 -18 9 -14 14 -28 11 -31 -3 -4 -2 -5 2 -2 8 7 12 105 4 105
-4 0 -12 -9 -19 -21z"/>
<path d="M1167 1543 c-11 -19 -17 -84 -10 -110 6 -23 9 -15 14 42 6 69 6 84
-4 68z"/>
<path d="M1195 1516 c-3 -14 -7 -37 -10 -50 -3 -14 -2 -33 3 -43 4 -12 9 4 13
47 6 69 3 89 -6 46z"/>
<path d="M2157 1513 c-2 -5 -4 -21 -5 -36 -1 -19 2 -27 11 -24 6 2 10 11 8 18
-2 8 -3 22 -3 32 1 18 -4 22 -11 10z"/>
<path d="M1521 1432 c-8 -15 -6 -23 8 -36 18 -17 20 -16 26 4 5 14 2 28 -8 37
-13 14 -16 13 -26 -5z"/>
<path d="M893 1374 c-18 -14 -33 -33 -33 -42 0 -12 11 -5 35 21 31 34 40 47
33 47 -2 0 -18 -12 -35 -26z"/>
<path d="M354 1344 c3 -8 1 -14 -4 -14 -6 0 -10 -7 -10 -17 0 -9 3 -13 7 -10
3 4 11 -1 18 -10 10 -13 11 -10 8 18 -4 33 -4 33 13 14 15 -18 16 -18 10 -2
-3 10 -6 22 -6 26 0 4 -9 7 -21 8 -14 1 -19 -3 -15 -13z"/>
<path d="M394 1278 c-17 -19 -17 -21 -1 -15 11 4 17 1 17 -8 0 -8 5 -15 10
-15 13 0 13 17 -1 25 -6 4 -8 13 -5 21 8 20 2 17 -20 -8z"/>
<path d="M588 1179 c-10 -5 -18 -18 -18 -28 0 -22 -23 -71 -33 -71 -5 0 -1 -8
9 -17 11 -12 38 -19 83 -22 45 -2 60 -6 46 -12 -13 -5 -6 -6 20 -4 22 2 69 4
103 4 46 1 63 4 59 14 -3 9 -32 11 -110 9 -92 -3 -107 -2 -107 12 0 19 4 20
29 4 26 -16 51 -3 51 27 0 14 -2 25 -4 25 -2 0 -11 3 -19 6 -8 3 -25 -5 -37
-18 l-22 -23 7 38 c11 55 -15 81 -57 56z m42 -95 c0 -8 -10 -12 -27 -10 -36 5
-35 4 -29 15 9 14 56 10 56 -5z"/>
<path d="M1930 1021 c13 -9 12 -11 -5 -12 -22 -1 48 -18 80 -18 16 -1 17 1 5
9 -10 6 0 10 35 13 41 3 37 4 -22 5 -39 1 -80 5 -90 8 -15 5 -15 4 -3 -5z"/>
<path d="M505 1010 c-7 -12 38 -12 75 0 20 7 16 8 -22 9 -26 1 -50 -3 -53 -9z"/>
<path d="M1542 1004 c-8 -15 -132 -25 -132 -10 0 4 -12 6 -27 3 -85 -18 -93
-19 -93 -8 0 6 -13 11 -30 11 -17 0 -30 -5 -30 -12 0 -8 -3 -9 -8 -3 -4 6 -66
10 -147 10 -77 1 -149 2 -160 2 -37 3 -170 -9 -177 -15 -4 -4 19 -6 50 -5 l57
1 -60 -8 c-33 -4 -97 -8 -142 -9 -46 -1 -83 -5 -83 -10 0 -5 46 -11 103 -14
56 -2 111 -6 122 -9 11 -3 29 -2 40 3 14 5 8 7 -23 7 -64 -2 -61 10 5 17 32 3
70 8 84 11 21 4 27 1 25 -12 0 -9 5 -18 12 -20 7 -1 8 0 2 3 -8 3 -7 9 1 19
15 18 75 18 148 0 87 -22 148 -25 168 -10 16 12 16 13 1 14 -9 0 -19 -6 -22
-12 -5 -10 -7 -10 -12 0 -3 7 -25 12 -55 12 -30 0 -49 4 -49 11 0 11 48 9 175
-7 17 -2 60 -4 98 -4 47 0 67 -4 67 -13 0 -9 2 -9 8 1 6 8 27 11 63 8 30 -2
46 -1 37 1 -24 6 -23 23 2 23 11 0 20 -4 20 -10 0 -5 5 -10 11 -10 5 0 7 5 4
10 -8 13 28 13 41 1 5 -6 37 -12 72 -14 35 -3 65 -7 68 -10 4 -3 17 -2 30 3
14 6 54 11 89 13 36 2 66 8 68 13 3 13 -92 17 -108 4 -10 -8 -14 -7 -18 2 -4
10 -6 10 -6 1 -1 -18 -39 -16 -58 2 -8 9 -18 13 -21 10 -4 -3 0 -10 8 -15 13
-8 12 -10 -2 -10 -10 0 -18 4 -18 9 0 5 -28 12 -62 16 -35 3 -78 10 -95 15
-25 6 -35 5 -41 -6z"/>
<path d="M1003 1003 c26 -2 68 -2 95 0 26 2 4 3 -48 3 -52 0 -74 -1 -47 -3z"/>
<path d="M2202 1005 c11 -11 127 -15 133 -5 4 6 -20 10 -66 10 -40 0 -70 -2
-67 -5z"/>
<path d="M2342 998 c-14 -18 -18 -55 -7 -83 7 -19 6 -18 -8 1 -20 26 -57 38
-57 18 0 -17 -36 -19 -46 -2 -4 6 -3 8 3 5 6 -4 16 0 23 8 7 8 24 12 41 10 18
-2 27 0 23 6 -3 6 -13 8 -21 5 -10 -4 -13 -2 -10 7 4 10 -10 12 -60 9 -52 -4
-64 -2 -58 8 6 10 -3 12 -46 7 -30 -4 -63 -7 -74 -8 -14 -1 -11 -4 10 -10 24
-7 21 -7 -17 -4 -26 3 -49 1 -52 -3 -2 -4 6 -7 17 -8 12 0 40 -4 61 -9 32 -6
38 -5 34 6 -4 11 8 13 68 11 41 -2 74 -7 74 -12 0 -4 -26 -7 -57 -5 -32 1 -42
0 -23 -2 19 -2 44 -13 56 -24 11 -10 44 -25 72 -31 29 -7 52 -16 52 -20 0 -5
9 -8 19 -8 20 0 34 -14 37 -38 4 -24 12 -24 34 -2 11 11 24 19 28 16 5 -3 8 6
8 19 0 19 -5 24 -22 23 -13 -1 -26 -11 -30 -23 -6 -18 -7 -17 -11 7 -2 14 -10
29 -18 32 -9 3 -12 0 -8 -10 4 -10 0 -12 -11 -8 -17 6 -23 44 -7 44 9 0 23 41
16 49 -3 2 -9 -7 -14 -20 -8 -22 -10 -22 -16 -5 -5 11 -3 21 5 26 7 4 11 13 8
20 -3 9 -7 8 -16 -2z"/>
<path d="M2447 1004 c-7 -8 25 -44 34 -38 4 2 6 -5 4 -16 -2 -11 0 -18 6 -15
14 9 11 57 -3 50 -7 -4 -4 1 6 9 19 15 19 16 -10 16 -17 0 -33 -3 -37 -6z"/>
<path d="M545 982 c-11 -2 -30 -8 -42 -14 -17 -8 -26 -8 -37 1 -8 7 -23 11
-33 8 -14 -4 -13 -5 5 -6 12 0 22 -5 22 -11 0 -5 9 -10 19 -10 11 0 23 5 26
10 3 6 45 10 92 10 48 0 84 2 81 5 -6 7 -105 12 -133 7z"/>
<path d="M945 950 c8 -13 65 -13 85 0 11 7 0 10 -38 10 -33 0 -51 -4 -47 -10z"/>
<path d="M2390 928 c0 -5 7 -8 16 -8 8 0 12 -4 9 -10 -3 -5 -2 -10 3 -10 8 0
22 22 22 35 0 1 -11 2 -25 1 -14 0 -25 -4 -25 -8z"/>
<path d="M2485 890 c1 -16 -2 -30 -6 -30 -4 0 -5 -9 -2 -21 4 -12 0 -25 -8
-30 -10 -6 -8 -8 8 -6 12 0 19 5 17 9 -3 4 0 8 6 8 6 0 10 8 8 17 -2 10 7 22
20 29 23 11 23 12 3 17 -14 3 -21 0 -21 -10 0 -8 -5 -11 -10 -8 -6 3 -7 17 -4
31 3 13 2 24 -3 24 -6 0 -9 -13 -8 -30z"/>
<path d="M2370 817 c0 -9 -4 -17 -10 -17 -5 0 -10 -11 -10 -24 0 -55 -25 -69
-84 -46 -17 6 -34 6 -48 0 -21 -9 -21 -10 -3 -9 11 1 29 0 40 -1 20 -1 20 -1
0 -10 -14 -6 -4 -9 38 -9 31 -1 58 -4 58 -8 1 -5 2 -24 4 -43 3 -50 16 -91 26
-85 4 3 4 17 -1 31 -14 35 -13 36 10 24 17 -9 20 -8 20 9 0 30 11 52 23 44 6
-4 8 0 4 10 -4 10 -2 17 5 17 6 0 8 11 5 28 -3 15 -2 34 4 42 7 13 9 12 9 -2
0 -10 4 -18 8 -18 4 0 8 9 8 19 0 26 -43 34 -59 11 -13 -19 -57 -36 -57 -23 0
5 7 19 16 32 12 17 13 26 5 34 -8 8 -11 7 -11 -6z m41 -76 c10 -46 3 -83 -12
-60 -6 9 -6 1 -2 -20 4 -26 3 -33 -7 -29 -8 2 -16 10 -18 18 -3 8 0 10 9 5 8
-5 5 1 -5 13 -11 12 -16 22 -13 22 4 0 2 11 -3 24 -7 20 -6 25 8 28 26 6 42 5
43 -1z"/>
<path d="M1407 740 c-16 -5 -52 -8 -82 -7 -29 1 -51 -1 -49 -5 3 -4 -10 -7
-29 -6 -19 1 -39 -2 -46 -6 -6 -4 -18 -2 -26 4 -18 15 -141 9 -138 -6 1 -6
-16 -11 -40 -12 -23 -1 -61 -3 -84 -6 -24 -2 -43 -1 -43 3 0 4 -15 5 -32 3
-28 -4 -30 -6 -13 -13 11 -4 39 -8 63 -8 23 -1 42 -5 42 -11 0 -6 -70 -10
-187 -11 -104 0 -197 -4 -208 -9 -21 -9 309 -5 460 5 81 6 532 11 1075 14 179
1 193 2 172 17 -14 9 -30 13 -44 8 -17 -5 -20 -3 -15 10 8 20 -2 21 -17 1 -6
-8 -27 -17 -46 -20 -24 -4 -29 -3 -15 3 18 8 17 9 -7 15 -15 4 -43 5 -62 1
-41 -6 -66 3 -45 17 8 5 37 9 64 10 38 1 44 3 25 8 -31 9 -79 3 -105 -13 -24
-15 -246 -11 -279 5 -17 8 -16 6 4 -10 l25 -21 -50 -1 -50 -2 40 -7 c34 -6 30
-7 -30 -8 -47 0 -64 2 -50 8 16 7 10 9 -25 10 -42 2 -43 3 -15 10 17 4 47 8
68 9 42 1 51 20 10 22 -16 1 -32 0 -38 -1 -41 -9 -70 -8 -76 2 -6 9 -11 9 -22
-1 -10 -8 -17 -9 -22 -1 -7 12 -19 12 -58 0z m58 -21 c17 0 24 -3 18 -6 -7 -2
-13 -9 -13 -15 0 -6 7 -8 15 -4 8 3 25 1 37 -4 15 -6 -60 -9 -212 -8 -208 2
-296 -3 -351 -18 -9 -3 -19 2 -23 11 -5 13 3 15 48 14 29 -1 57 1 63 4 13 8
225 9 293 1 31 -3 70 -1 90 5 31 9 31 10 6 7 -17 -2 -36 -2 -43 1 -21 8 -3 25
21 19 11 -3 35 -6 51 -7z m405 -29 c-59 -11 -159 -12 -142 -2 7 5 52 9 100 9
73 1 80 0 42 -7z m185 -5 c6 -2 -20 -4 -57 -4 -38 -1 -68 3 -68 7 0 8 102 5
125 -3z"/>
<path d="M532 684 c-11 -12 -3 -14 55 -13 68 1 68 1 21 9 -26 5 -51 10 -55 13
-4 3 -14 -1 -21 -9z"/>
<path d="M1913 604 c-274 -132 -548 -131 -845 4 -38 17 -68 27 -68 21 0 -13
80 -63 132 -81 187 -66 172 -63 358 -63 179 0 181 0 335 50 61 20 166 78 176
98 5 9 8 17 7 16 -2 0 -45 -21 -95 -45z"/>
</g>
</svg>
