<?xml version="1.0" standalone="no"?>
<!DOCTYPE svg PUBLIC "-//W3C//DTD SVG 20010904//EN"
 "http://www.w3.org/TR/2001/REC-SVG-20010904/DTD/svg10.dtd">
<svg version="1.0" xmlns="http://www.w3.org/2000/svg"
 width="236.000000pt" height="236.000000pt" viewBox="0 0 236.000000 236.000000"
 preserveAspectRatio="xMidYMid meet">
<metadata>
Created by potrace 1.10, written by Peter Selinger 2001-2011
</metadata>
<g transform="translate(0.000000,236.000000) scale(0.100000,-0.100000)"
fill="#000000" stroke="none">
<path d="M790 2158 c-27 -44 -34 -118 -27 -287 7 -170 16 -210 62 -259 l33
-36 -49 -44 c-51 -45 -121 -171 -135 -240 -4 -18 -9 -34 -13 -36 -3 -2 -44 3
-91 10 -47 7 -101 13 -119 13 -64 1 -18 -16 89 -33 57 -9 106 -18 108 -20 1
-2 0 -15 -4 -30 -5 -22 -12 -26 -43 -26 -61 0 -141 -12 -141 -21 0 -5 36 -9
81 -9 61 0 80 -3 76 -12 -102 -243 -137 -413 -118 -578 28 -240 104 -328 327
-377 116 -26 623 -26 739 0 193 43 271 114 311 283 21 89 20 264 -1 367 -16
79 -65 229 -91 279 -8 15 -14 29 -14 33 0 3 36 5 80 5 44 0 80 4 80 9 0 9 -80
21 -141 21 -31 0 -38 4 -43 26 -4 15 -5 28 -4 30 2 2 51 11 108 20 178 29 149
46 -34 20 -78 -11 -89 -11 -93 3 -38 126 -90 221 -151 272 l-40 34 33 37 c51
55 59 98 59 313 1 173 -1 193 -19 224 -11 19 -26 36 -33 39 -24 8 -91 -77
-137 -172 -65 -134 -90 -269 -65 -355 12 -42 8 -47 -22 -27 -59 39 -246 39
-306 0 -13 -9 -25 -14 -27 -12 -2 2 1 24 6 48 22 94 -11 248 -82 380 -33 63
-98 140 -118 140 -6 0 -20 -14 -31 -32z m124 -153 c41 -85 50 -108 48 -117 -1
-5 1 -8 6 -8 4 0 8 -10 9 -23 1 -12 6 -50 11 -84 5 -34 5 -60 2 -58 -4 3 -7
-14 -7 -36 0 -22 4 -42 9 -45 4 -3 6 -10 3 -15 -4 -5 0 -9 9 -9 8 0 16 -5 18
-10 2 -7 21 -5 53 5 65 19 192 19 238 0 43 -18 61 -19 51 -3 -4 7 -3 8 5 4 25
-16 37 19 39 124 3 134 6 160 13 160 4 0 16 28 29 63 12 34 29 70 38 80 8 9
12 17 9 17 -4 0 1 9 11 21 54 65 53 64 62 49 16 -27 23 -122 17 -250 -7 -140
-27 -224 -63 -257 -13 -12 -24 -27 -24 -33 0 -22 21 -50 32 -44 6 4 8 3 5 -3
-7 -12 28 -44 39 -35 4 4 4 2 0 -5 -3 -6 2 -16 11 -22 10 -6 14 -11 10 -11 -5
0 2 -14 14 -32 13 -17 18 -28 11 -24 -7 4 -12 2 -13 -6 0 -7 -5 -4 -10 7 -6
11 -24 27 -42 35 -35 16 -107 21 -107 8 0 -4 -6 -8 -14 -8 -20 0 -63 -54 -71
-90 -15 -67 30 -137 103 -161 28 -9 40 -7 79 13 60 30 86 75 80 141 -2 28 0
47 6 47 6 0 8 -3 4 -6 -3 -3 7 -30 24 -60 16 -30 26 -54 23 -54 -3 0 1 -6 9
-14 8 -8 12 -26 10 -39 -3 -14 2 -30 11 -39 8 -9 18 -29 21 -44 7 -32 44 -133
55 -149 27 -40 60 -228 62 -344 2 -154 -29 -263 -94 -335 -16 -17 -28 -34 -28
-39 0 -4 -4 -6 -9 -3 -4 3 -26 -3 -47 -13 -45 -22 -55 -19 -30 8 10 11 15 25
10 32 -4 7 -3 10 4 5 7 -4 20 21 35 71 33 108 36 255 7 349 -21 68 -82 174
-101 174 -6 0 -8 4 -5 9 8 13 -108 99 -171 127 -126 57 -238 61 -415 18 -16
-3 -28 -10 -28 -15 0 -5 -7 -9 -16 -9 -26 0 -127 -66 -154 -101 -14 -18 -31
-38 -37 -45 -7 -7 -13 -17 -13 -23 0 -6 -4 -11 -10 -11 -12 0 -32 -38 -55
-105 -18 -51 -32 -311 -17 -301 5 3 8 -10 8 -27 0 -18 14 -61 32 -96 18 -35
32 -65 32 -66 0 -2 -9 -5 -20 -8 -11 -3 -18 -1 -15 3 3 4 -7 13 -23 18 -15 5
-36 19 -47 30 -25 25 -60 66 -57 69 0 2 -6 20 -15 40 -8 21 -17 52 -20 68 -2
17 -8 46 -13 65 -11 49 -4 192 15 286 20 93 73 262 86 270 5 3 9 16 9 30 0 14
7 35 15 48 9 13 18 34 20 47 6 34 55 147 80 189 12 19 20 41 17 49 -3 8 0 11
6 7 9 -5 24 16 26 39 1 6 7 11 14 11 6 1 17 2 22 3 6 0 10 6 10 13 0 6 7 19
16 29 17 18 11 64 -7 53 -5 -3 -8 -2 -7 3 2 4 -7 24 -20 45 -30 48 -45 178
-39 327 3 64 7 125 10 136 3 11 6 21 6 23 4 14 69 -77 95 -133z m645 -611 c42
-35 44 -98 5 -137 -63 -63 -164 -23 -164 65 0 85 93 128 159 72z m-207 -384
c154 -47 269 -162 312 -309 21 -70 21 -219 1 -296 -31 -117 -116 -206 -209
-220 -22 -4 -156 -5 -296 -3 l-255 3 -47 28 c-97 56 -148 174 -148 337 0 231
115 393 328 461 81 26 229 25 314 -1z"/>
<path d="M850 1448 c-44 -13 -77 -49 -86 -93 -9 -50 2 -82 42 -123 29 -30 43
-36 87 -40 48 -4 55 -1 82 26 45 45 52 56 50 79 -1 12 2 20 7 17 5 -3 6 7 2
23 -23 94 -94 138 -184 111z m105 -44 c13 -9 29 -31 35 -50 33 -98 -87 -169
-161 -95 -82 82 28 209 126 145z"/>
<path d="M870 1360 c-27 -27 -25 -56 5 -76 57 -38 109 41 53 80 -29 20 -34 20
-58 -4z m58 -23 c2 -10 -3 -17 -12 -17 -18 0 -29 16 -21 31 9 14 29 6 33 -14z"/>
<path d="M1175 1390 c2 -4 -6 -6 -18 -6 -13 1 -21 -4 -19 -11 1 -7 -3 -12 -9
-10 -6 1 -16 -6 -22 -15 -22 -33 31 -89 88 -93 42 -3 105 42 105 74 0 26 -37
64 -55 57 -8 -3 -15 -2 -15 3 0 4 -13 8 -30 8 -16 0 -27 -3 -25 -7z m95 -54
c0 -18 -44 -46 -72 -46 -29 1 -73 34 -64 49 11 17 136 15 136 -3z"/>
<path d="M1472 1364 c-31 -22 -26 -63 10 -83 24 -14 28 -14 47 3 27 25 27 61
-1 80 -28 20 -28 20 -56 0z m53 -25 c0 -7 -8 -15 -17 -17 -18 -3 -25 18 -11
32 10 10 28 1 28 -15z"/>
<path d="M1164 821 c-56 -34 -108 -121 -73 -121 6 0 24 11 41 25 38 32 84 32
132 0 58 -40 69 -16 22 48 -17 24 -74 67 -87 67 -2 0 -18 -9 -35 -19z"/>
<path d="M843 768 c-34 -37 -53 -69 -53 -92 0 -24 21 -19 60 14 40 35 72 38
119 9 26 -16 36 -17 42 -8 10 17 -15 52 -60 83 -49 34 -71 33 -108 -6z"/>
<path d="M1423 756 c-32 -30 -44 -48 -40 -60 6 -15 9 -14 39 4 46 28 81 25
121 -10 77 -68 86 -9 11 79 -38 45 -73 42 -131 -13z"/>
</g>
</svg>
