<?xml version="1.0" standalone="no"?>
<!DOCTYPE svg PUBLIC "-//W3C//DTD SVG 20010904//EN"
 "http://www.w3.org/TR/2001/REC-SVG-20010904/DTD/svg10.dtd">
<svg version="1.0" xmlns="http://www.w3.org/2000/svg"
 width="300.000000pt" height="470.000000pt" viewBox="0 0 300.000000 470.000000"
 preserveAspectRatio="xMidYMid meet">
<metadata>
Created by potrace 1.10, written by Peter Selinger 2001-2011
</metadata>
<g transform="translate(0.000000,470.000000) scale(0.100000,-0.100000)"
fill="#000000" stroke="none">
<path d="M1310 3583 c-349 -54 -629 -256 -793 -570 -74 -143 -107 -289 -107
-469 0 -126 10 -193 47 -314 107 -349 410 -628 768 -706 163 -36 397 -26 543
22 77 26 224 98 278 137 44 32 53 35 63 23 27 -32 14 -192 -24 -305 -8 -25
-15 -53 -15 -63 0 -40 20 -13 51 70 30 78 33 98 33 197 1 83 -3 119 -16 148
l-17 38 -63 -51 c-77 -62 -214 -130 -333 -167 -84 -25 -103 -27 -270 -27 -153
0 -192 4 -258 22 -339 94 -615 363 -712 696 -84 293 -28 622 150 871 100 140
286 285 447 349 212 83 473 91 693 19 259 -84 508 -317 611 -572 52 -127 67
-207 71 -370 l3 -154 50 -23 c27 -12 75 -40 107 -62 88 -59 87 -58 70 -25 -16
29 -52 58 -138 106 l-46 26 -6 138 c-3 76 -12 170 -21 208 -21 92 -70 215
-118 294 -21 34 -38 67 -38 71 0 5 -3 10 -7 12 -5 2 -26 26 -48 53 -195 244
-497 387 -812 384 -65 -1 -129 -3 -143 -6z"/>
<path d="M1260 3492 c-16 -13 -21 -24 -16 -40 13 -38 69 -40 81 -1 13 40 -32
68 -65 41z"/>
<path d="M1046 3269 c-20 -30 -6 -63 28 -67 33 -4 56 13 56 42 0 47 -57 63
-84 25z"/>
<path d="M1735 3220 c-4 -16 -4 -43 0 -59 6 -28 6 -28 -42 -28 -27 0 -63 -8
-81 -17 -31 -16 -32 -16 -32 4 0 27 -37 100 -51 100 -15 0 0 -91 18 -112 14
-15 13 -20 -5 -42 -15 -20 -39 -109 -33 -124 1 -1 -12 -28 -28 -60 -39 -79
-47 -140 -25 -200 10 -26 24 -51 31 -55 7 -4 13 -15 13 -22 0 -8 5 -15 10 -15
6 0 10 -11 10 -26 0 -37 41 -102 73 -115 23 -10 26 -14 15 -24 -11 -11 -101
-45 -117 -45 -3 0 -6 31 -7 69 -1 81 -27 133 -74 150 -17 5 -30 15 -30 20 0 6
-13 17 -30 26 -16 9 -30 21 -30 28 0 7 -7 22 -16 33 -14 18 -15 18 -11 -12 3
-27 -1 -34 -29 -46 -31 -14 -33 -14 -45 9 -7 12 -16 23 -21 23 -12 0 -10 -23
6 -45 10 -15 11 -36 5 -80 -14 -116 -12 -129 31 -181 22 -26 49 -53 62 -60 21
-11 19 -13 -30 -38 -37 -19 -52 -23 -52 -13 0 8 -18 28 -39 45 -22 18 -44 47
-51 67 -14 41 -35 36 -26 -6 7 -38 -16 -39 -34 -1 -11 23 -14 24 -18 9 -2 -10
1 -31 7 -45 5 -15 13 -51 17 -81 5 -41 11 -55 25 -58 10 -3 19 -6 19 -7 0 -1
-24 -27 -53 -57 -92 -94 -104 -149 -67 -295 23 -88 27 -93 124 -158 65 -43 74
-46 135 -46 158 0 250 97 251 261 0 87 -13 107 -89 134 -69 24 -124 20 -163
-12 -71 -59 -77 -75 -56 -145 8 -26 21 -44 39 -54 34 -17 103 -18 116 -1 16
20 31 73 24 84 -9 14 -39 23 -56 17 -21 -9 -19 -21 6 -27 23 -6 22 -25 -4 -41
-11 -7 -25 -7 -44 0 -24 8 -28 15 -31 54 -3 36 1 47 20 62 51 39 160 9 170
-47 11 -57 -30 -141 -84 -176 -67 -42 -175 -9 -226 69 -23 35 -22 135 2 180
26 51 89 108 156 142 178 90 408 77 632 -36 85 -43 136 -105 215 -261 83 -163
83 -234 -1 -438 -39 -96 -24 -114 22 -26 106 203 102 334 -19 543 -79 137
-111 172 -202 216 -162 78 -233 96 -387 96 -103 0 -136 -4 -190 -23 -123 -43
-203 -102 -251 -185 -24 -42 -29 -62 -29 -118 0 -37 4 -77 9 -90 15 -40 79
-96 134 -117 51 -19 51 -20 18 -20 -39 -1 -120 45 -163 92 -32 34 -46 77 -55
165 -7 73 0 92 67 172 62 74 62 74 43 107 -9 16 -14 37 -10 46 8 21 40 22 57
1 34 -40 92 -34 145 16 11 10 34 22 50 26 17 4 47 18 67 31 21 12 51 23 68 23
34 0 84 22 117 52 17 16 38 21 100 23 72 3 146 20 201 48 18 8 28 8 43 -1 10
-7 51 -17 90 -22 154 -22 375 -91 485 -151 41 -23 79 -37 85 -33 8 4 9 3 5 -4
-5 -8 2 -12 21 -12 27 1 27 1 8 16 -116 89 -378 188 -570 215 -136 18 -126 13
-104 56 20 42 30 167 21 273 -5 65 -6 65 -74 132 -37 36 -68 72 -68 78 0 18
-63 92 -87 101 -15 5 -21 14 -17 24 8 20 -5 105 -16 105 -5 0 -11 -13 -15 -30z
m58 -144 c9 -22 -19 -42 -37 -26 -19 15 -10 40 14 40 10 0 20 -6 23 -14z
m-188 -47 c0 -15 -7 -25 -18 -27 -22 -4 -33 24 -17 43 18 21 35 13 35 -16z
m115 22 c0 -5 -16 -11 -35 -13 -34 -4 -48 5 -22 15 21 9 57 7 57 -2z m108 -33
c17 -17 15 -28 -7 -28 -22 0 -35 15 -26 30 8 13 18 13 33 -2z m-252 -49 c3 -6
1 -16 -5 -22 -9 -9 -14 -8 -21 3 -9 15 -4 30 10 30 5 0 12 -5 16 -11z m281
-46 c76 -50 105 -106 119 -231 11 -104 -26 -173 -108 -200 -112 -38 -145 -42
-200 -25 -82 25 -101 48 -139 164 -13 40 -17 72 -13 106 16 136 60 194 164
216 82 17 113 12 177 -30z m-440 -375 c45 -42 65 -116 43 -159 -14 -25 -82
-59 -119 -59 -22 0 -38 10 -65 42 -31 36 -36 48 -36 92 0 53 16 82 55 105 29
17 93 6 122 -21z"/>
<path d="M1725 2911 c-7 -13 -8 -12 28 -15 15 -1 26 3 24 9 -5 14 -44 18 -52
6z"/>
<path d="M1630 2895 c-15 -18 -5 -34 11 -18 6 6 19 9 28 5 14 -5 14 -4 2 11
-17 21 -25 21 -41 2z"/>
<path d="M1787 2853 c-14 -13 -6 -20 23 -20 32 0 40 11 14 21 -20 8 -29 8 -37
-1z"/>
<path d="M1700 2835 c-18 -21 -11 -25 30 -16 34 7 34 8 13 19 -27 15 -28 15
-43 -3z"/>
<path d="M1610 2815 c-7 -8 -11 -17 -8 -20 8 -8 49 8 45 18 -6 18 -23 19 -37
2z"/>
<path d="M1094 3139 c-12 -4 -25 -13 -29 -19 -11 -19 4 -58 25 -65 46 -15 82
23 61 63 -13 25 -31 31 -57 21z"/>
<path d="M830 3090 c-11 -11 -20 -26 -20 -33 0 -24 31 -57 55 -57 50 0 73 60
37 93 -25 22 -48 21 -72 -3z"/>
<path d="M748 2828 c-23 -19 -28 -54 -11 -77 19 -29 67 -28 87 1 21 30 20 44
-4 68 -23 23 -49 26 -72 8z"/>
<path d="M632 2718 c-32 -32 4 -87 48 -73 25 8 37 50 20 70 -15 18 -51 20 -68
3z"/>
<path d="M701 2611 c-16 -29 -14 -46 9 -66 41 -37 102 17 73 64 -16 25 -69 26
-82 2z"/>
<path d="M562 2538 c-20 -20 -15 -66 9 -78 47 -26 100 25 72 69 -13 20 -64 26
-81 9z"/>
<path d="M702 2378 c-17 -17 -15 -53 3 -68 12 -10 21 -10 40 -2 40 19 29 82
-15 82 -9 0 -21 -5 -28 -12z"/>
<path d="M822 2314 c-41 -29 -19 -94 33 -94 51 0 71 54 35 90 -24 24 -38 25
-68 4z m48 -25 c0 -5 -7 -9 -15 -9 -9 0 -12 -6 -9 -15 4 -9 0 -15 -10 -15 -20
0 -20 5 0 35 15 23 34 26 34 4z"/>
<path d="M602 2284 c-24 -17 -30 -62 -10 -82 37 -37 113 12 88 57 -9 17 -39
41 -52 41 -2 0 -14 -7 -26 -16z"/>
<path d="M704 2195 c-28 -28 -30 -42 -8 -73 29 -42 104 -18 104 35 0 21 -23
46 -53 56 -12 5 -26 -2 -43 -18z"/>
<path d="M726 2014 c-21 -20 -20 -37 2 -57 33 -30 72 -15 72 28 0 42 -44 59
-74 29z"/>
<path d="M1597 1992 c-25 -28 -22 -69 8 -88 31 -20 53 -15 78 19 l21 27 -21
28 c-25 33 -63 40 -86 14z"/>
<path d="M845 1975 c-28 -27 -30 -37 -14 -66 16 -31 57 -43 85 -24 32 21 33
77 2 99 -31 22 -45 20 -73 -9z"/>
</g>
</svg>
