<svg version="1.1" id="Layer_1" xmlns="http://www.w3.org/2000/svg" xmlns:xlink="http://www.w3.org/1999/xlink" x="0px" y="0px"
	 width="100%" viewBox="0 0 496 496" enable-background="new 0 0 496 496" xml:space="preserve">
<path fill="#000000" opacity="1.000000" stroke="none" 
	d="
M384.077637,288.878967 
	C383.321075,306.267059 379.101257,322.413330 372.309387,338.669708 
	C384.477600,338.392975 388.011749,346.270996 390.610596,355.542938 
	C395.996948,374.759979 395.672913,393.635284 388.340637,412.306213 
	C386.016510,418.224365 382.108521,422.117950 375.575226,422.696472 
	C361.661804,423.928436 347.733948,424.997528 333.821350,426.238098 
	C296.117859,429.599976 258.323486,430.017242 220.533356,429.052551 
	C198.620132,428.493225 176.688126,428.532532 154.847076,424.991516 
	C135.947845,421.927460 127.749832,410.103302 123.734779,393.252930 
	C119.937439,377.316193 121.903870,361.886169 127.413376,346.704224 
	C129.735229,340.306152 134.250290,336.047455 140.554596,333.932068 
	C144.155258,332.723877 144.557022,330.910919 143.607407,327.598572 
	C140.355560,316.255798 136.387634,305.089783 134.384277,293.426575 
	C133.627747,289.022339 133.459152,284.492828 133.344513,280.012177 
	C133.281067,277.532104 133.588074,274.496735 136.233505,273.545441 
	C140.573059,271.984955 140.452469,268.670227 140.704315,265.131531 
	C141.918915,248.065414 142.575272,230.932526 147.620132,214.366638 
	C153.538086,194.933823 163.159714,177.625504 176.852829,162.628708 
	C181.926514,157.071976 184.674561,157.267059 191.855698,163.198410 
	C194.686066,161.290070 196.052429,158.169312 197.952805,155.507263 
	C207.339386,142.358490 216.540176,129.086121 225.046143,115.338531 
	C229.881104,107.524139 230.135025,98.594589 231.580139,89.962120 
	C232.742340,83.019669 234.560059,81.575157 241.269104,83.590538 
	C261.259247,89.595520 277.090576,101.548103 289.804840,117.883217 
	C300.057251,131.055374 308.551636,145.400955 317.445923,159.473816 
	C319.685577,163.017471 322.097748,165.206238 326.675140,164.645538 
	C330.660187,164.157364 333.688599,166.804794 336.178589,169.439255 
	C355.394958,189.770401 368.638428,213.161957 372.376801,241.308823 
	C373.471375,249.549896 374.549438,257.792725 373.443237,266.134613 
	C373.084534,268.839630 373.782196,270.789001 377.068024,270.665710 
	C381.413696,270.502655 382.870941,273.328949 383.258881,276.973877 
	C383.663513,280.776001 383.832977,284.603180 384.077637,288.878967 
M181.134888,354.357544 
	C191.388474,362.241699 202.484543,368.417450 214.996841,372.090942 
	C233.139252,377.417450 251.705124,378.196625 270.373871,377.599365 
	C286.432922,377.085571 302.257355,374.642120 316.944366,367.775238 
	C344.462982,354.908936 364.802673,335.950531 369.342285,304.054871 
	C369.828400,300.639404 369.838135,298.496796 365.408691,297.922913 
	C358.024872,296.966309 356.507507,294.964264 357.855682,287.585602 
	C360.091003,275.351562 359.912689,263.056030 359.659760,250.745285 
	C359.200592,228.399429 350.521454,209.079300 337.373566,191.488510 
	C336.235077,189.965286 335.120850,188.147018 332.831238,187.898148 
	C330.916443,189.947495 330.236938,192.576080 329.163422,194.981430 
	C328.022675,197.537384 326.745819,199.653046 323.430908,199.606979 
	C320.087189,199.560516 317.567413,198.227219 316.137970,195.278503 
	C315.129303,193.197784 314.197357,190.965790 313.836823,188.704758 
	C312.311951,179.142471 308.545563,170.586777 303.116638,162.622864 
	C299.742310,157.672882 296.736481,152.470215 293.602600,147.358063 
	C282.719727,129.605316 270.404388,113.211052 252.307297,101.963737 
	C246.220642,98.180878 244.263687,98.754944 243.399200,105.963364 
	C242.910995,110.034134 241.462311,113.683502 239.405991,117.148163 
	C233.619446,126.897865 227.544357,136.479263 220.244644,145.164246 
	C211.909607,155.081009 206.768097,166.479630 203.434967,178.838562 
	C202.786484,181.243103 202.184616,183.669250 201.362549,186.015808 
	C200.202881,189.326141 198.841187,193.613831 195.457275,194.050034 
	C191.827713,194.517899 189.164429,190.763412 187.101181,187.730347 
	C184.994858,184.633926 183.264557,181.281723 181.043381,177.483658 
	C155.713181,213.058105 144.587341,250.361481 161.255173,292.046295 
	C158.428864,293.546844 156.386642,293.091797 154.421005,293.208649 
	C148.300598,293.572327 146.312607,296.145630 147.867798,302.002960 
	C153.364624,322.705719 163.711533,340.365723 181.134888,354.357544 
M136.466766,392.956390 
	C137.526566,396.897217 139.225281,400.375702 143.091339,402.422424 
	C145.773849,400.775146 146.388657,398.101837 146.935715,395.576721 
	C149.552567,383.497589 149.506058,371.509369 145.192657,359.755157 
	C144.317566,357.370422 143.158478,354.551147 140.420013,354.626831 
	C137.585846,354.705109 136.839706,357.656311 136.197784,360.129395 
	C133.422516,370.821655 133.617676,381.497864 136.466766,392.956390 
z"/>
<path fill="#000000" opacity="1.000000" stroke="none" 
	d="
M393.112976,246.005035 
	C389.597321,252.223679 386.263306,258.123383 382.667938,264.485596 
	C379.498138,260.603546 378.432159,256.361145 378.706055,251.908356 
	C379.658020,236.430984 390.082245,225.655899 397.715881,213.412292 
	C403.848206,225.429077 399.102142,235.636002 393.112976,246.005035 
z"/>
<path fill="#000000" opacity="1.000000" stroke="none" 
	d="
M119.044540,315.732086 
	C114.891724,305.168213 112.578308,294.547394 110.626030,283.165222 
	C115.877182,283.894806 118.890785,286.938538 121.692116,290.055878 
	C125.896759,294.734833 128.084030,300.490387 129.710403,306.486786 
	C131.817413,314.255371 133.978760,322.009216 136.359406,330.650299 
	C127.676910,328.336243 122.337296,323.533386 119.044540,315.732086 
z"/>
<path fill="#000000" opacity="1.000000" stroke="none" 
	d="
M297.190277,322.088501 
	C303.766968,323.683289 304.677460,330.630646 302.568451,338.400269 
	C300.765869,345.040924 295.639099,348.790344 289.637512,351.395050 
	C281.397614,354.971222 272.754639,355.897095 263.812897,355.524994 
	C255.172318,355.165405 246.543732,355.134094 238.014709,353.354309 
	C227.949631,351.253967 220.491592,345.600677 215.104858,337.052063 
	C212.687637,333.216003 211.504578,329.066803 214.049454,324.812531 
	C216.540131,320.648895 220.476257,319.193848 225.159836,319.687714 
	C227.628616,319.947968 230.150513,320.182068 232.514633,320.880707 
	C249.359940,325.859039 266.342529,325.127960 283.369720,322.220215 
	C287.856812,321.453888 292.305054,321.579102 297.190277,322.088501 
M259.751892,339.664764 
	C252.233276,339.020660 245.513306,342.051270 242.521194,348.089233 
	C252.276367,349.769989 261.722229,350.942780 272.038940,350.351685 
	C269.952698,343.822357 265.431610,341.636505 259.751892,339.664764 
z"/>
<path fill="#000000" opacity="1.000000" stroke="none" 
	d="
M246.780014,141.756744 
	C247.391769,141.147064 247.722992,140.770905 248.090851,140.434830 
	C250.193100,138.514221 252.436447,136.130600 255.427948,136.988602 
	C258.720795,137.933014 258.000092,141.640274 257.897308,143.864868 
	C257.410278,154.407120 261.902618,163.221634 266.640778,172.053040 
	C271.887878,181.833130 275.088409,191.913895 271.182556,203.080383 
	C268.010010,212.150360 262.017914,218.438370 252.056534,223.446609 
	C256.066650,208.363083 247.124084,198.405182 242.313156,187.167206 
	C238.050964,177.211044 235.458511,167.081635 238.593353,156.215042 
	C240.143356,150.842087 242.516815,145.986938 246.780014,141.756744 
z"/>
<path fill="#000000" opacity="1.000000" stroke="none" 
	d="
M343.198853,292.905060 
	C340.278412,308.049316 334.058716,314.676147 321.218811,316.741119 
	C308.389221,318.804443 295.110962,308.344849 293.755798,295.107880 
	C292.331573,281.196472 302.757690,268.374573 316.054535,267.685211 
	C331.330353,266.893250 341.196503,275.899689 343.198853,292.905060 
M311.304443,310.389893 
	C321.099182,313.655518 330.378204,310.307617 335.363037,301.709503 
	C339.819305,294.023163 337.992096,283.419403 331.217133,277.649353 
	C323.739014,271.280457 313.529480,271.217926 305.591797,277.492401 
	C294.599854,286.181152 297.156036,302.784515 311.304443,310.389893 
z"/>
<path fill="#000000" opacity="1.000000" stroke="none" 
	d="
M219.177063,304.927216 
	C213.552902,313.382812 205.823257,317.570435 196.174347,316.832275 
	C186.346146,316.080475 178.960800,310.934479 175.135468,301.602692 
	C170.797653,291.020752 173.986053,279.569916 182.923981,272.501251 
	C190.919464,266.177979 203.666641,265.990753 212.318344,272.069550 
	C220.920166,278.113281 224.616974,289.569153 221.276688,300.014221 
	C220.774185,301.585541 220.000839,303.070221 219.177063,304.927216 
M178.351364,291.645477 
	C178.804077,301.743286 185.071716,309.611237 194.167694,311.500183 
	C202.299210,313.188843 211.652328,308.517487 215.425415,300.883209 
	C219.346771,292.948944 217.557785,283.587799 210.906723,277.730713 
	C205.136032,272.648865 198.251831,271.530243 191.306091,273.958405 
	C183.639526,276.638580 179.439056,282.705414 178.351364,291.645477 
z"/>
<path fill="#000000" opacity="1.000000" stroke="none" 
	d="
M330.522766,327.073853 
	C338.595673,328.550171 341.996765,332.494934 341.304413,339.097870 
	C340.698334,344.878387 336.376068,348.149261 329.039215,348.183624 
	C325.895081,348.198364 322.716156,348.577698 319.614532,347.572754 
	C314.880280,346.038879 311.694458,341.711700 311.974792,337.066437 
	C312.270386,332.168976 315.609894,328.262909 320.629181,327.514648 
	C323.735779,327.051514 326.931122,327.183990 330.522766,327.073853 
z"/>
<path fill="#000000" opacity="1.000000" stroke="none" 
	d="
M177.812210,335.461914 
	C181.553101,327.008759 196.925903,323.803772 203.508270,329.830933 
	C206.524811,332.593048 207.710739,336.159729 206.588028,340.237457 
	C205.354584,344.717407 202.288925,347.473602 197.784149,347.978363 
	C194.011353,348.401062 190.103165,348.386932 186.336655,347.914581 
	C180.607452,347.196136 177.782242,342.922974 177.812210,335.461914 
z"/>
<path fill="#000000" opacity="1.000000" stroke="none" 
	d="
M316.748566,287.846619 
	C320.639008,288.967346 322.983734,291.115295 323.082092,294.920868 
	C323.149567,297.530060 322.071564,299.766754 319.626923,301.064056 
	C316.933441,302.493347 314.185425,302.677185 311.721741,300.686859 
	C309.383575,298.798004 308.154144,296.249695 309.006500,293.221893 
	C310.021729,289.615631 312.571869,287.803436 316.748566,287.846619 
z"/>
<path fill="#000000" opacity="1.000000" stroke="none" 
	d="
M197.807007,301.591583 
	C193.293121,298.438385 192.102188,294.894531 194.305069,291.351837 
	C196.298798,288.145508 199.269028,286.911011 202.887772,288.318146 
	C206.783218,289.832886 208.113220,293.086334 207.054474,296.834808 
	C205.841553,301.129089 202.668304,302.887115 197.807007,301.591583 
z"/>
</svg>