<svg id="eOw0bMDuHcA1" xmlns="http://www.w3.org/2000/svg" xmlns:xlink="http://www.w3.org/1999/xlink" viewBox="0 0 1868 2668" shape-rendering="geometricPrecision" text-rendering="geometricPrecision" width="1868" height="2668"><g transform="matrix(.1 0 0-.1 0 2668)"><path d="M0,13340L0,0h9340h9340v13340v13340h-9340-9340v-13340Zm18000,0v-12660h-8660-8660v12660v12660h8660h8660v-12660Z"/><path d="M1340,13347v-12007h8000h8000v6934c0,3814-4,6936-8,6938-5,2-5,341-1,753c4,413,8,2691,8,5063l1,4312h-7188c-3954,0-7554,3-8000,7l-812,6v-12006ZM9775,23860c1119-80,2155-461,3040-1117c1209-897,2032-2274,2255-3773c30-200,73-687,66-750-115-1115-137-1294-182-1477-111-450-280-878-534-1355l-100-187v-2071-2072l-784,4c-431,1-787,5-789,8-7,7-15,171-22,440-3,124-10,385-15,580s-12,450-15,565c-3,116-7,260-10,320-2,61-7,236-10,390s-8,314-10,355c-8,151-20,946-20,1335c0,392,1,401,22,442c24,46,22,66-17,143-37,75-92,139-135,160-53,26-130,26-170,2-71-44-143-140-164-218-9-35-8-48,6-80c17-36,18-92,18-704c0-609-7-1162-20-1545-3-82-10-321-15-530-6-209-12-432-15-495-2-63-7-232-11-375-3-143-7-278-9-300s-5-140-6-262l-2-223h-98c-75,0-101,4-113,16-19,19-19,17-2,101c20,93,34,262,42,488c8,231-2,298-47,323-79,45-133,288-133,609-1,195,0,202,22,230c42,52,45,71,23,142-33,107-45,207-45,371-1,190,10,220,105,289c59,43,118,115,106,128-4,3-25,0-48-7-78-26-408,23-584,87-145,52-276,117-309,152l-30,31l55,50c44,40,61,49,92,50c46,0,107,24,107,42c0,7-21,21-47,30-27,10-67,29-90,44l-42,28v79v79l98,127c273,353,481,638,481,659c0,13-18,14-130,8-148-8-150-7-126,62c8,23,11,44,7,46-5,3-26-8-47-24-51-39-72-38-89,4-18,43-54,66-105,66-47,0-51-14-15-49c35-32,34-81-3-122-43-48-112-59-418-66-284-6-361,1-452,42-249,113-711,540-874,807-47,76-54,104-119,437-35,182-56,268-61,255-12-29-128-551-128-575c0-83-215-351-470-586-257-238-408-334-580-369-75-15-102-16-235-5-236,18-404,60-452,113-12,13-18,36-18,67v46l-48,3c-53,3-97-17-97-44c0-13-8-14-41-9l-42,7l8-28c11-40,8-66-7-75-28-18-96-9-153,21-67,35-90,37-106,9-25-47,51-190,248-464c55-77,147-205,204-285c119-167,150-223,155-289c4-45,3-47-38-74-24-15-64-35-90-45-27-9-48-23-48-30c0-18,61-42,106-42c29,0,46-10,92-50c31-27,60-50,64-50s8-4,8-9c0-15-197-87-315-115-253-59-482-87-546-66-21,7-42,10-46,7-12-13,47-85,106-128c95-69,106-99,105-289c0-164-12-264-45-371-22-71-19-90,23-142c22-28,23-35,22-230c0-321-54-564-133-609-45-25-55-92-47-323c8-226,22-395,42-488c17-84,17-82-2-101-12-13-39-16-125-16h-109v233c0,127,7,752,15,1387c31,2446,48,3003,92,3052c23,26,18,71-15,141-63,134-126,186-223,187-55,0-117-36-173-101-78-91-87-128-67-269c23-159-35-1308-145-2860-71-1020-95-1380-101-1564l-6-189-516,6c-284,4-605,7-714,7h-197v2071v2072l-79,141c-248,443-430,903-556,1406-106,427-141,730-152,1330-8,435,17,825,55,873c5,7,15,37,21,67c7,30,19,75,27,100s14,62,14,84c0,67,30,246,65,391c102,417,299,907,520,1295c379,664,978,1357,1554,1799c408,314,1141,697,1691,886c392,134,933,236,1425,268c122,8,613,6,740-3ZM4855,6258c47-12,50-15,53-48c3-45-30-175-44-175-7,0-31,29-55,65-52,77-86,98-176,111-114,16-227-19-314-98-83-75-87-127-12-192c51-46,125-77,231-97c39-8,106-20,147-28c78-15,176-54,208-84c56-50,75-176,41-276-35-103-171-206-320-242-96-24-285-24-388,0-103,23-136,53-136,120c0,66,27,128,54,124c15-2,22-13,29-45c13-69,88-115,217-133c139-20,278,18,349,95c51,55,69,110,52,165-23,78-120,123-352,165-161,29-234,60-292,124-88,97-65,244,58,367c61,61,102,84,170,95c73,12,421,2,480-13Zm8860-80c60-31,105-77,205-213c141-191,152-205,165-205c17,0,82,78,165,195c126,178,204,255,262,255s33-45-154-277c-206-255-233-312-226-492c4-132,13-149,98-180c63-23,72-40,29-52-13-4-105-7-204-8-168-1-255,9-255,28c0,9,39,27,83,37c101,24,115,220,26,399-87,177-298,416-398,451-70,25-88,40-75,62c16,25,49,31,144,28c68-2,95-8,135-28ZM5711,5941c61-19,74-41,74-135c0-74-3-87-30-132-24-39-44-56-95-82-84-42-183-54-218-26-39,32-20,54,44,54s110,17,144,55c21,22,25,36,25,90s-4,68-25,91c-44,47-95,64-198,64h-94l4-292c3-272,4-296,24-338c11-25,28-51,37-59c10-7,17-18,17-23c0-15-306-6-322,10-10,10-10,15,2,22c8,5,24,10,36,10c57,0,84,94,84,297s-31,347-80,373c-27,15-16,27,30,33c62,9,504-2,541-12Zm472,12l68-6-31-26c-44-37-54-114-47-366c6-214,16-272,53-308c45-42,34-47-110-47-143,0-205,12-185,36c6,8,21,14,33,14c36,0,56,22,71,80c48,182,15,525-56,585-16,13-29,26-29,29c0,13,137,18,233,9Zm778-12c61-19,74-41,74-135c0-73-3-87-27-124-15-22-55-59-88-82l-61-41l82-97c137-163,218-225,266-203c36,17,44,53,50,231c6,184-9,376-32,423-8,16-15,32-15,34c0,1,66,3,146,3h146l-30-28c-18-17-34-45-39-68-4-21-8-145-8-274c1-261,9-314,51-330c40-16,30-38-22-46-68-10-383,2-429,17s-174,137-272,261c-96,121-94,135,18,157c159,32,189,188,49,259-36,18-61,22-138,22h-94l4-292c3-272,4-296,24-338c11-25,28-51,37-59c10-7,17-18,17-23c0-15-306-6-322,10-10,10-10,15,2,22c8,5,24,10,36,10c57,0,84,94,84,297s-31,347-80,373c-27,15-16,27,30,33c62,9,504-2,541-12Zm1346,1c26-14,37-64,25-107l-9-30-22,37c-28,47-91,78-157,78-57,0-69-6-82-40-26-70-21-519,7-593c6-15,22-32,36-37s25-14,25-20c0-20-53-30-165-30-150,0-204,20-138,52c15,7,31,26,36,43c6,17,11,152,11,300c1,324,1,325-90,325-69,0-128-29-156-76-26-44-38-35-38,25c0,54,12,69,63,82c55,13,628,6,654-9Zm758,9c36-7,43-33,25-98-14-49-20-48-35,5-16,56-62,69-200,56-155-15-172-33-177-182-4-95,5-102,117-102c90,0,138,12,173,43l22,20v-102-102l-26,20c-35,27-119,44-193,39-87-6-95-17-99-131-2-51,1-104,7-119c15-39,71-52,197-45c125,7,176,26,216,81l30,41-4-63c-3-38-10-69-20-78-27-27-88-34-331-34h-238l8,218c13,352,11,453-10,485-9,15-25,27-34,27s-13,3-9,8c16,16,514,28,581,13Zm2132-13c32-35,93-139,184-314c120-232,185-340,219-364c16-12,30-25,30-30c0-18-74-31-179-32-145,0-191,23-116,59c43,21,45,46,9,114-37,67-88,91-197,93-105,1-149-8-187-41-34-29-70-91-70-123c0-13,13-28,35-41c71-42,35-64-105-64-144,0-176,22-101,70c56,35,123,136,258,390c81,151,177,305,191,305c5,0,18-10,29-22Zm651,8c2-3-5-17-17-32-11-15-21-41-21-58c1-70,75-352,104-391c14-20,14-20,36,0c35,31,71,88,160,250c67,121,122,214,147,244c12,16,60-64,155-259c114-234,145-287,158-273c27,31,130,376,130,438c0,13-12,37-26,54l-25,30l25,7c32,8,172,1,182-9c4-4,0-15-9-25-25-28-87-176-156-377-73-210-133-345-154-345-22,0-64,72-181,311-58,118-114,223-124,233-19,16-21,15-54-36-19-29-81-144-138-255-56-111-117-219-136-240l-34-38-19,23c-11,12-27,48-36,80-111,394-181,601-216,638-26,28-24,32,19,37c43,6,223,0,230-7Zm1465-53c25-38,91-156,147-263c136-258,197-359,226-372c32-15,30-36-3-49-31-11-248-17-259-7-4,4,1,26,11,47c24,53,14,101-31,151-47,52-112,73-208,68-100-5-161-37-198-103-36-64-33-85,15-108c77-36,30-62-115-62-91,0-110,3-125,18-17,18-17,19,1,30c76,46,135,130,278,394c121,225,185,323,209,323c4,0,28-30,52-67Zm-3443,47c69-5,143-14,164-20c88-26,205-192,214-306c4-45,0-63-24-109-53-106-195-237-304-282-40-16-75-18-295-18-137,0-258,3-267,7-15,6-15,11-1,55c11,35,17,110,20,283c6,251-3,336-37,370-13,13-15,20-7,24c21,8,407,6,537-4Z"/><path d="M11097,5728c-28-37-87-168-87-192c0-23,41-36,108-36c54,0,128,13,138,23c16,16-101,237-125,237-6,0-21-15-34-32Z"/><path d="M13186,5736c-31-34-98-189-90-210c3-9,24-18,51-22c51-7,174,3,187,16c12,12-11,76-54,151-54,91-63,97-94,65Z"/><path d="M9547,5878c-25-208-17-513,14-581c17-37,73-51,170-44c187,15,294,96,335,257c21,82,15,179-14,236-55,108-166,155-428,179l-71,7-6-54Z"/><path id="eOw0bMDuHcA9" d="M5603.099041,14213.36853c-293.474945-38.278678-229.676044-44.658458,255.195604-25.519119c389.173296,12.75956,740.067251-12.759559,893.184614-57.418017l255.195604-82.937137-382.793406-178.633832c-842.145493-395.546343-1027.162306-440.204801-2137.263183-484.863259-1161.139998-51.038238-1384.436152-108.456256-2520.056589-637.977973-376.413516-178.633832-625.22923-255.191189-733.687361-236.05185-89.318462,19.13934-242.435824,0-344.514066-44.658458l-185.016813-76.557356l248.815714-82.937137c242.435824-76.557357,287.095055-70.177577,854.905273,153.114714c931.463955,363.647444,1314.257361,472.103699,1894.82736,516.762157c465.731977,38.278679,529.530878,31.898899,529.530878-63.797797c0-57.418017-31.899451-102.076476-70.178791-102.076476-31.899451,0-44.659231-31.898898-25.519561-70.177576c31.899451-44.658459,95.698352-25.519119,185.016813,57.418017c95.698352,89.316916,261.575494,133.975374,612.46945,159.494493c261.575494,19.139339,663.50857,95.696696,886.804723,165.874273c395.553186,121.215815,401.933077,121.215815,433.832527,0c19.13967-63.797797,57.419011-102.076476,89.318461-82.937136c38.279341,19.139339,38.279341,76.557356,0,140.355154-76.558681,133.975374,287.095055,331.748545,976.123185,529.521717c440.212417,127.595594,631.60912,255.191189,529.530879,350.887885-12.759781,19.139339-210.536374,44.658458-433.832527,57.418017s-510.391208,51.038238-631.60912,89.316916c-236.055933,76.557357-561.430328,76.557357-1180.279668,6.37978Z" transform="translate(-7778.885711 1338.22598)"/></g>
<script><![CDATA[
!function(t,e){"object"==typeof exports&&"undefined"!=typeof module?module.exports=e():"function"==typeof __SVGATOR_DEFINE__&&__SVGATOR_DEFINE__.amd?__SVGATOR_DEFINE__(e):((t="undefined"!=typeof globalThis?globalThis:t||self).__SVGATOR_PLAYER__=t.__SVGATOR_PLAYER__||{},t.__SVGATOR_PLAYER__["91c80d77"]=e())}(this,(function(){"use strict";function t(t,e){var n=Object.keys(t);if(Object.getOwnPropertySymbols){var r=Object.getOwnPropertySymbols(t);e&&(r=r.filter((function(e){return Object.getOwnPropertyDescriptor(t,e).enumerable}))),n.push.apply(n,r)}return n}function e(e){for(var n=1;n<arguments.length;n++){var r=null!=arguments[n]?arguments[n]:{};n%2?t(Object(r),!0).forEach((function(t){u(e,t,r[t])})):Object.getOwnPropertyDescriptors?Object.defineProperties(e,Object.getOwnPropertyDescriptors(r)):t(Object(r)).forEach((function(t){Object.defineProperty(e,t,Object.getOwnPropertyDescriptor(r,t))}))}return e}function n(t){return(n="function"==typeof Symbol&&"symbol"==typeof Symbol.iterator?function(t){return typeof t}:function(t){return t&&"function"==typeof Symbol&&t.constructor===Symbol&&t!==Symbol.prototype?"symbol":typeof t})(t)}function r(t,e){if(!(t instanceof e))throw new TypeError("Cannot call a class as a function")}function i(t,e){for(var n=0;n<e.length;n++){var r=e[n];r.enumerable=r.enumerable||!1,r.configurable=!0,"value"in r&&(r.writable=!0),Object.defineProperty(t,r.key,r)}}function o(t,e,n){return e&&i(t.prototype,e),n&&i(t,n),t}function u(t,e,n){return e in t?Object.defineProperty(t,e,{value:n,enumerable:!0,configurable:!0,writable:!0}):t[e]=n,t}function a(t){return(a=Object.setPrototypeOf?Object.getPrototypeOf:function(t){return t.__proto__||Object.getPrototypeOf(t)})(t)}function s(t,e){return(s=Object.setPrototypeOf||function(t,e){return t.__proto__=e,t})(t,e)}function l(){if("undefined"==typeof Reflect||!Reflect.construct)return!1;if(Reflect.construct.sham)return!1;if("function"==typeof Proxy)return!0;try{return Boolean.prototype.valueOf.call(Reflect.construct(Boolean,[],(function(){}))),!0}catch(t){return!1}}function f(t,e,n){return(f=l()?Reflect.construct:function(t,e,n){var r=[null];r.push.apply(r,e);var i=new(Function.bind.apply(t,r));return n&&s(i,n.prototype),i}).apply(null,arguments)}function c(t,e){if(e&&("object"==typeof e||"function"==typeof e))return e;if(void 0!==e)throw new TypeError("Derived constructors may only return object or undefined");return function(t){if(void 0===t)throw new ReferenceError("this hasn't been initialised - super() hasn't been called");return t}(t)}function h(t,e,n){return(h="undefined"!=typeof Reflect&&Reflect.get?Reflect.get:function(t,e,n){var r=function(t,e){for(;!Object.prototype.hasOwnProperty.call(t,e)&&null!==(t=a(t)););return t}(t,e);if(r){var i=Object.getOwnPropertyDescriptor(r,e);return i.get?i.get.call(n):i.value}})(t,e,n||t)}function v(t){return function(t){if(Array.isArray(t))return y(t)}(t)||function(t){if("undefined"!=typeof Symbol&&null!=t[Symbol.iterator]||null!=t["@@iterator"])return Array.from(t)}(t)||function(t,e){if(!t)return;if("string"==typeof t)return y(t,e);var n=Object.prototype.toString.call(t).slice(8,-1);"Object"===n&&t.constructor&&(n=t.constructor.name);if("Map"===n||"Set"===n)return Array.from(t);if("Arguments"===n||/^(?:Ui|I)nt(?:8|16|32)(?:Clamped)?Array$/.test(n))return y(t,e)}(t)||function(){throw new TypeError("Invalid attempt to spread non-iterable instance.\nIn order to be iterable, non-array objects must have a [Symbol.iterator]() method.")}()}function y(t,e){(null==e||e>t.length)&&(e=t.length);for(var n=0,r=new Array(e);n<e;n++)r[n]=t[n];return r}Number.isInteger||(Number.isInteger=function(t){return"number"==typeof t&&isFinite(t)&&Math.floor(t)===t}),Number.EPSILON||(Number.EPSILON=2220446049250313e-31);var d=g(Math.pow(10,-6));function g(t){var e=arguments.length>1&&void 0!==arguments[1]?arguments[1]:6;if(Number.isInteger(t))return t;var n=Math.pow(10,e);return Math.round((+t+Number.EPSILON)*n)/n}function p(t,e){var n=arguments.length>2&&void 0!==arguments[2]?arguments[2]:d;return Math.abs(t-e)<n}var m=Math.PI/180;function b(t){return t}function w(t,e,n){var r=1-n;return 3*n*r*(t*r+e*n)+n*n*n}function k(){var t=arguments.length>0&&void 0!==arguments[0]?arguments[0]:0,e=arguments.length>1&&void 0!==arguments[1]?arguments[1]:0,n=arguments.length>2&&void 0!==arguments[2]?arguments[2]:1,r=arguments.length>3&&void 0!==arguments[3]?arguments[3]:1;return t<0||t>1||n<0||n>1?null:p(t,e)&&p(n,r)?b:function(i){if(i<=0)return t>0?i*e/t:0===e&&n>0?i*r/n:0;if(i>=1)return n<1?1+(i-1)*(r-1)/(n-1):1===n&&t<1?1+(i-1)*(e-1)/(t-1):1;for(var o,u=0,a=1;u<a;){var s=w(t,n,o=(u+a)/2);if(p(i,s))break;s<i?u=o:a=o}return w(e,r,o)}}function _(){return 1}function A(t){return 1===t?1:0}function x(){var t=arguments.length>0&&void 0!==arguments[0]?arguments[0]:1,e=arguments.length>1&&void 0!==arguments[1]?arguments[1]:0;if(1===t){if(0===e)return A;if(1===e)return _}var n=1/t;return function(t){return t>=1?1:(t+=e*n)-t%n}}var O=Math.sin,S=Math.cos,E=Math.acos,P=Math.asin,j=Math.tan,M=Math.atan2,B=Math.PI/180,T=180/Math.PI,I=Math.sqrt,R=function(){function t(){var e=arguments.length>0&&void 0!==arguments[0]?arguments[0]:1,n=arguments.length>1&&void 0!==arguments[1]?arguments[1]:0,i=arguments.length>2&&void 0!==arguments[2]?arguments[2]:0,o=arguments.length>3&&void 0!==arguments[3]?arguments[3]:1,u=arguments.length>4&&void 0!==arguments[4]?arguments[4]:0,a=arguments.length>5&&void 0!==arguments[5]?arguments[5]:0;r(this,t),this.m=[e,n,i,o,u,a],this.i=null,this.w=null,this.s=null}return o(t,[{key:"determinant",get:function(){var t=this.m;return t[0]*t[3]-t[1]*t[2]}},{key:"isIdentity",get:function(){if(null===this.i){var t=this.m;this.i=1===t[0]&&0===t[1]&&0===t[2]&&1===t[3]&&0===t[4]&&0===t[5]}return this.i}},{key:"point",value:function(t,e){var n=this.m;return{x:n[0]*t+n[2]*e+n[4],y:n[1]*t+n[3]*e+n[5]}}},{key:"translateSelf",value:function(){var t=arguments.length>0&&void 0!==arguments[0]?arguments[0]:0,e=arguments.length>1&&void 0!==arguments[1]?arguments[1]:0;if(!t&&!e)return this;var n=this.m;return n[4]+=n[0]*t+n[2]*e,n[5]+=n[1]*t+n[3]*e,this.w=this.s=this.i=null,this}},{key:"rotateSelf",value:function(){var t=arguments.length>0&&void 0!==arguments[0]?arguments[0]:0;if(t%=360){var e=O(t*=B),n=S(t),r=this.m,i=r[0],o=r[1];r[0]=i*n+r[2]*e,r[1]=o*n+r[3]*e,r[2]=r[2]*n-i*e,r[3]=r[3]*n-o*e,this.w=this.s=this.i=null}return this}},{key:"scaleSelf",value:function(){var t=arguments.length>0&&void 0!==arguments[0]?arguments[0]:1,e=arguments.length>1&&void 0!==arguments[1]?arguments[1]:1;if(1!==t||1!==e){var n=this.m;n[0]*=t,n[1]*=t,n[2]*=e,n[3]*=e,this.w=this.s=this.i=null}return this}},{key:"skewSelf",value:function(t,e){if(e%=360,(t%=360)||e){var n=this.m,r=n[0],i=n[1],o=n[2],u=n[3];t&&(t=j(t*B),n[2]+=r*t,n[3]+=i*t),e&&(e=j(e*B),n[0]+=o*e,n[1]+=u*e),this.w=this.s=this.i=null}return this}},{key:"resetSelf",value:function(){var t=arguments.length>0&&void 0!==arguments[0]?arguments[0]:1,e=arguments.length>1&&void 0!==arguments[1]?arguments[1]:0,n=arguments.length>2&&void 0!==arguments[2]?arguments[2]:0,r=arguments.length>3&&void 0!==arguments[3]?arguments[3]:1,i=arguments.length>4&&void 0!==arguments[4]?arguments[4]:0,o=arguments.length>5&&void 0!==arguments[5]?arguments[5]:0,u=this.m;return u[0]=t,u[1]=e,u[2]=n,u[3]=r,u[4]=i,u[5]=o,this.w=this.s=this.i=null,this}},{key:"recomposeSelf",value:function(){var t=arguments.length>0&&void 0!==arguments[0]?arguments[0]:null,e=arguments.length>1&&void 0!==arguments[1]?arguments[1]:null,n=arguments.length>2&&void 0!==arguments[2]?arguments[2]:null,r=arguments.length>3&&void 0!==arguments[3]?arguments[3]:null,i=arguments.length>4&&void 0!==arguments[4]?arguments[4]:null;return this.isIdentity||this.resetSelf(),t&&(t.x||t.y)&&this.translateSelf(t.x,t.y),e&&this.rotateSelf(e),n&&(n.x&&this.skewSelf(n.x,0),n.y&&this.skewSelf(0,n.y)),!r||1===r.x&&1===r.y||this.scaleSelf(r.x,r.y),i&&(i.x||i.y)&&this.translateSelf(i.x,i.y),this}},{key:"decompose",value:function(){var t=arguments.length>0&&void 0!==arguments[0]?arguments[0]:0,e=arguments.length>1&&void 0!==arguments[1]?arguments[1]:0,n=this.m,r=n[0]*n[0]+n[1]*n[1],i=[[n[0],n[1]],[n[2],n[3]]],o=I(r);if(0===o)return{origin:{x:g(n[4]),y:g(n[5])},translate:{x:g(t),y:g(e)},scale:{x:0,y:0},skew:{x:0,y:0},rotate:0};i[0][0]/=o,i[0][1]/=o;var u=n[0]*n[3]-n[1]*n[2]<0;u&&(o=-o);var a=i[0][0]*i[1][0]+i[0][1]*i[1][1];i[1][0]-=i[0][0]*a,i[1][1]-=i[0][1]*a;var s=I(i[1][0]*i[1][0]+i[1][1]*i[1][1]);if(0===s)return{origin:{x:g(n[4]),y:g(n[5])},translate:{x:g(t),y:g(e)},scale:{x:g(o),y:0},skew:{x:0,y:0},rotate:0};i[1][0]/=s,i[1][1]/=s,a/=s;var l=0;return i[1][1]<0?(l=E(i[1][1])*T,i[0][1]<0&&(l=360-l)):l=P(i[0][1])*T,u&&(l=-l),a=M(a,I(i[0][0]*i[0][0]+i[0][1]*i[0][1]))*T,u&&(a=-a),{origin:{x:g(n[4]),y:g(n[5])},translate:{x:g(t),y:g(e)},scale:{x:g(o),y:g(s)},skew:{x:g(a),y:0},rotate:g(l)}}},{key:"clone",value:function(){var t=this.m;return new this.constructor(t[0],t[1],t[2],t[3],t[4],t[5])}},{key:"toString",value:function(){var t=arguments.length>0&&void 0!==arguments[0]?arguments[0]:" ";if(null===this.s){var e=this.m.map((function(t){return g(t)}));1===e[0]&&0===e[1]&&0===e[2]&&1===e[3]?this.s="translate("+e[4]+t+e[5]+")":this.s="matrix("+e.join(t)+")"}return this.s}}],[{key:"create",value:function(t){return t?Array.isArray(t)?f(this,v(t)):t instanceof this?t.clone():(new this).recomposeSelf(t.origin,t.rotate,t.skew,t.scale,t.translate):new this}}]),t}();function N(t,e,n){return t>=.5?n:e}function F(t,e,n){return 0===t||e===n?e:t*(n-e)+e}function C(t,e,n){var r=F(t,e,n);return r<=0?0:r}function D(t,e,n){var r=F(t,e,n);return r<=0?0:r>=1?1:r}function L(t,e,n){return 0===t?e:1===t?n:{x:F(t,e.x,n.x),y:F(t,e.y,n.y)}}function V(t,e,n){return 0===t?e:1===t?n:{x:C(t,e.x,n.x),y:C(t,e.y,n.y)}}function q(t,e,n){var r=function(t,e,n){return Math.round(F(t,e,n))}(t,e,n);return r<=0?0:r>=255?255:r}function G(t,e,n){return 0===t?e:1===t?n:{r:q(t,e.r,n.r),g:q(t,e.g,n.g),b:q(t,e.b,n.b),a:F(t,null==e.a?1:e.a,null==n.a?1:n.a)}}function z(t,e,n){var r=e.length;if(r!==n.length)return N(t,e,n);for(var i=new Array(r),o=0;o<r;o++)i[o]=F(t,e[o],n[o]);return i}function Y(t,e){for(var n=[],r=0;r<t;r++)n.push(e);return n}function U(t,e){if(--e<=0)return t;var n=(t=Object.assign([],t)).length;do{for(var r=0;r<n;r++)t.push(t[r])}while(--e>0);return t}var W,$=function(){function t(e){r(this,t),this.list=e,this.length=e.length}return o(t,[{key:"setAttribute",value:function(t,e){for(var n=this.list,r=0;r<this.length;r++)n[r].setAttribute(t,e)}},{key:"removeAttribute",value:function(t){for(var e=this.list,n=0;n<this.length;n++)e[n].removeAttribute(t)}},{key:"style",value:function(t,e){for(var n=this.list,r=0;r<this.length;r++)n[r].style[t]=e}}]),t}(),H=/-./g,Q=function(t,e){return e.toUpperCase()};function X(t){return"function"==typeof t?t:N}function J(t){return t?"function"==typeof t?t:Array.isArray(t)?function(t){var e=arguments.length>1&&void 0!==arguments[1]?arguments[1]:b;if(!Array.isArray(t))return e;switch(t.length){case 1:return x(t[0])||e;case 2:return x(t[0],t[1])||e;case 4:return k(t[0],t[1],t[2],t[3])||e}return e}(t,null):function(t,e){var n=arguments.length>2&&void 0!==arguments[2]?arguments[2]:b;switch(t){case"linear":return b;case"steps":return x(e.steps||1,e.jump||0)||n;case"bezier":case"cubic-bezier":return k(e.x1||0,e.y1||0,e.x2||0,e.y2||0)||n}return n}(t.type,t.value,null):null}function K(t,e,n){var r=arguments.length>3&&void 0!==arguments[3]&&arguments[3],i=e.length-1;if(t<=e[0].t)return r?[0,0,e[0].v]:e[0].v;if(t>=e[i].t)return r?[i,1,e[i].v]:e[i].v;var o,u=e[0],a=null;for(o=1;o<=i;o++){if(!(t>e[o].t)){a=e[o];break}u=e[o]}return null==a?r?[i,1,e[i].v]:e[i].v:u.t===a.t?r?[o,1,a.v]:a.v:(t=(t-u.t)/(a.t-u.t),u.e&&(t=u.e(t)),r?[o,t,n(t,u.v,a.v)]:n(t,u.v,a.v))}function Z(t,e){var n=arguments.length>2&&void 0!==arguments[2]?arguments[2]:null;return t&&t.length?"function"!=typeof e?null:("function"!=typeof n&&(n=null),function(r){var i=K(r,t,e);return null!=i&&n&&(i=n(i)),i}):null}function tt(t,e){return t.t-e.t}function et(t,e,r,i,o){var u,a="@"===r[0],s="#"===r[0],l=W[r],f=N;switch(a?(u=r.substr(1),r=u.replace(H,Q)):s&&(r=r.substr(1)),n(l)){case"function":if(f=l(i,o,K,J,r,a,e,t),s)return f;break;case"string":f=Z(i,X(l));break;case"object":if((f=Z(i,X(l.i),l.f))&&"function"==typeof l.u)return l.u(e,f,r,a,t)}return f?function(t,e,n){if(arguments.length>3&&void 0!==arguments[3]&&arguments[3])return t instanceof $?function(r){return t.style(e,n(r))}:function(r){return t.style[e]=n(r)};if(Array.isArray(e)){var r=e.length;return function(i){var o=n(i);if(null==o)for(var u=0;u<r;u++)t[u].removeAttribute(e);else for(var a=0;a<r;a++)t[a].setAttribute(e,o)}}return function(r){var i=n(r);null==i?t.removeAttribute(e):t.setAttribute(e,i)}}(e,r,f,a):null}function nt(t,e,r,i){if(!i||"object"!==n(i))return null;var o=null,u=null;return Array.isArray(i)?u=function(t){if(!t||!t.length)return null;for(var e=0;e<t.length;e++)t[e].e&&(t[e].e=J(t[e].e));return t.sort(tt)}(i):(u=i.keys,o=i.data||null),u?et(t,e,r,u,o):null}function rt(t,e,n){if(!n)return null;var r=[];for(var i in n)if(n.hasOwnProperty(i)){var o=nt(t,e,i,n[i]);o&&r.push(o)}return r.length?r:null}function it(t,e){if(!e.settings.duration||e.settings.duration<0)return null;var n,r,i,o,u,a=function(t,e){if(!e)return null;var n=[];if(Array.isArray(e))for(var r=e.length,i=0;i<r;i++){var o=e[i];if(2===o.length){var u=null;if("string"==typeof o[0])u=t.getElementById(o[0]);else if(Array.isArray(o[0])){u=[];for(var a=0;a<o[0].length;a++)if("string"==typeof o[0][a]){var s=t.getElementById(o[0][a]);s&&u.push(s)}u=u.length?1===u.length?u[0]:new $(u):null}if(u){var l=rt(t,u,o[1]);l&&(n=n.concat(l))}}}else for(var f in e)if(e.hasOwnProperty(f)){var c=t.getElementById(f);if(c){var h=rt(t,c,e[f]);h&&(n=n.concat(h))}}return n.length?n:null}(t,e.elements);return a?(n=a,r=e.settings,i=r.duration,o=n.length,u=null,function(t,e){var a=r.iterations||1/0,s=(r.alternate&&a%2==0)^r.direction>0?i:0,l=t%i,f=1+(t-l)/i;e*=r.direction,r.alternate&&f%2==0&&(e=-e);var c=!1;if(f>a)l=s,c=!0,-1===r.fill&&(l=r.direction>0?0:i);else if(e<0&&(l=i-l),l===u)return!1;u=l;for(var h=0;h<o;h++)n[h](l);return c}):null}function ot(t,e){if(W=e,!t||!t.root||!Array.isArray(t.animations))return null;var n=function(t){for(var e=document.getElementsByTagName("svg"),n=0;n<e.length;n++)if(e[n].id===t.root&&!e[n].svgatorAnimation)return e[n].svgatorAnimation=!0,e[n];return null}(t);if(!n)return null;var r=t.animations.map((function(t){return it(n,t)})).filter((function(t){return!!t}));return r.length?{svg:n,animations:r,animationSettings:t.animationSettings,options:t.options||void 0}:null}function ut(t){return+("0x"+(t.replace(/[^0-9a-fA-F]+/g,"")||27))}function at(t,e,n){return!t||!n||e>t.length?t:t.substring(0,e)+at(t.substring(e+1),n,n)}function st(t){var e=arguments.length>1&&void 0!==arguments[1]?arguments[1]:27;return!t||t%e?t%e:st(t/e,e)}function lt(t,e,n){if(t&&t.length){var r=ut(n),i=ut(e),o=st(r)+5,u=at(t,st(r,5),o);return u=u.replace(/\x7c$/g,"==").replace(/\x2f$/g,"="),u=function(t,e,n){var r=+("0x"+t.substring(0,4));t=t.substring(4);for(var i=e%r+n%27,o=[],u=0;u<t.length;u+=2)if("|"!==t[u]){var a=+("0x"+t[u]+t[u+1])-i;o.push(a)}else{var s=+("0x"+t.substring(u+1,u+1+4))-i;u+=3,o.push(s)}return String.fromCharCode.apply(String,o)}(u=(u=atob(u)).replace(/[\x41-\x5A]/g,""),i,r),u=JSON.parse(u)}}var ft=[{key:"alternate",def:!1},{key:"fill",def:1},{key:"iterations",def:0},{key:"direction",def:1},{key:"speed",def:1},{key:"fps",def:100}],ct=function(){function t(e,n){var i=this,o=arguments.length>2&&void 0!==arguments[2]?arguments[2]:null;r(this,t),this._id=0,this._running=!1,this._rollingBack=!1,this._animations=e,this._settings=n,(!o||o<"2022-05-02")&&delete this._settings.speed,ft.forEach((function(t){i._settings[t.key]=i._settings[t.key]||t.def})),this.duration=n.duration,this.offset=n.offset||0,this.rollbackStartOffset=0}return o(t,[{key:"alternate",get:function(){return this._settings.alternate}},{key:"fill",get:function(){return this._settings.fill}},{key:"iterations",get:function(){return this._settings.iterations}},{key:"direction",get:function(){return this._settings.direction}},{key:"speed",get:function(){return this._settings.speed}},{key:"fps",get:function(){return this._settings.fps}},{key:"maxFiniteDuration",get:function(){return this.iterations>0?this.iterations*this.duration:this.duration}},{key:"_apply",value:function(t){for(var e=arguments.length>1&&void 0!==arguments[1]?arguments[1]:{},n=this._animations,r=n.length,i=0,o=0;o<r;o++)e[o]?i++:(e[o]=n[o](t,1),e[o]&&i++);return i}},{key:"_rollback",value:function(t){var e=this,n=1/0,r=null;this.rollbackStartOffset=t,this._rollingBack=!0,this._running=!0;this._id=window.requestAnimationFrame((function i(o){if(e._rollingBack){null==r&&(r=o);var u=Math.round(t-(o-r)*e.speed);if(u>e.duration&&n!==1/0){var a=!!e.alternate&&u/e.duration%2>1,s=u%e.duration;u=(s+=a?e.duration:0)||e.duration}var l=(e.fps?1e3/e.fps:0)*e.speed,f=Math.max(0,u);f<=n-l&&(e.offset=f,n=f,e._apply(f));var c=e.iterations>0&&-1===e.fill&&u>=e.maxFiniteDuration;(u<=0||e.offset<u||c)&&e.stop(),e._id=window.requestAnimationFrame(i)}}))}},{key:"_start",value:function(){var t=this,e=arguments.length>0&&void 0!==arguments[0]?arguments[0]:0,n=-1/0,r=null,i={};this._running=!0;var o=function o(u){null==r&&(r=u);var a=Math.round((u-r)*t.speed+e),s=(t.fps?1e3/t.fps:0)*t.speed;if(a>=n+s&&!t._rollingBack&&(t.offset=a,n=a,t._apply(a,i)===t._animations.length))return void t.pause(!0);t._id=window.requestAnimationFrame(o)};this._id=window.requestAnimationFrame(o)}},{key:"_pause",value:function(){this._id&&window.cancelAnimationFrame(this._id),this._running=!1}},{key:"play",value:function(){if(!this._running)return this._rollingBack?this._rollback(this.offset):this._start(this.offset)}},{key:"stop",value:function(){this._pause(),this.offset=0,this.rollbackStartOffset=0,this._rollingBack=!1,this._apply(0)}},{key:"reachedToEnd",value:function(){return this.iterations>0&&this.offset>=this.iterations*this.duration}},{key:"restart",value:function(){var t=arguments.length>0&&void 0!==arguments[0]&&arguments[0];this.stop(t),this.play(t)}},{key:"pause",value:function(){this._pause()}},{key:"reverse",value:function(){this.direction=-this.direction}}],[{key:"build",value:function(t,e){delete t.animationSettings,t.options=lt(t.options,t.root,"91c80d77"),t.animations.map((function(e){e.settings=lt(e.s,t.root,"91c80d77"),delete e.s,t.animationSettings||(t.animationSettings=e.settings)}));var n=t.version;if(!(t=ot(t,e)))return null;var r=t.options||{},i=new this(t.animations,t.animationSettings,n);return{el:t.svg,options:r,player:i}}},{key:"push",value:function(t){return this.build(t)}},{key:"init",value:function(){var t=this,e=window.__SVGATOR_PLAYER__&&window.__SVGATOR_PLAYER__["91c80d77"];Array.isArray(e)&&e.splice(0).forEach((function(e){return t.build(e)}))}}]),t}();!function(){for(var t=0,e=["ms","moz","webkit","o"],n=0;n<e.length&&!window.requestAnimationFrame;++n)window.requestAnimationFrame=window[e[n]+"RequestAnimationFrame"],window.cancelAnimationFrame=window[e[n]+"CancelAnimationFrame"]||window[e[n]+"CancelRequestAnimationFrame"];window.requestAnimationFrame||(window.requestAnimationFrame=function(e){var n=Date.now(),r=Math.max(0,16-(n-t)),i=window.setTimeout((function(){e(n+r)}),r);return t=n+r,i},window.cancelAnimationFrame=window.clearTimeout)}();var ht=function(){function t(e,n,i){r(this,t);var o=function(t){var e,n,r,i=t&&1===(null===(e=t.ownerDocument)||void 0===e||null===(n=e.childNodes)||void 0===n?void 0:n.length)&&window.parent!==window,o={el:t,window:window};if(!i)return o;try{r=window.parent.document}catch(t){return o}return o.window=window.parent,o.el=Array.from(r.querySelectorAll("iframe,object")).filter((function(t){return t.contentWindow===window}))[0]||o.el,o}(e);n=Math.max(1,n||1),n=Math.min(n,100),this.el=o.el,this._handlers=[],this.onThresholdChange=i&&i.call?i:function(){},this.thresholdPercent=n||1,this.currentVisibility=null,this.visibilityCalculator=function(t,e){var n=arguments.length>2&&void 0!==arguments[2]?arguments[2]:n,r=!1,i=null,o=function(){for(var o=0,u=n.innerHeight,a=0,s=n.innerWidth,l=t.parentNode;l instanceof Element;){var f=n.getComputedStyle(l);if("visible"!==f.overflowY||"visible"!==f.overflowX){var c=l.getBoundingClientRect();"visible"!==f.overflowY&&(o=Math.max(o,c.top),u=Math.min(u,c.bottom)),"visible"!==f.overflowX&&(a=Math.max(a,c.left),s=Math.min(s,c.right))}if(l===l.parentNode)break;l=l.parentNode}r=!1;var h=t.getBoundingClientRect(),v=Math.min(h.height,Math.max(0,o-h.top)),y=Math.min(h.height,Math.max(0,h.bottom-u)),d=Math.min(h.width,Math.max(0,a-h.left)),g=Math.min(h.width,Math.max(0,h.right-s)),p=(h.height-v-y)/h.height,m=(h.width-d-g)/h.width,b=Math.round(p*m*100);null!==i&&i===b||(i=b,e(b))};return function(t){r&&clearTimeout(r),r=setTimeout((function(){return o()}),100)}}(this.el,this.onVisibilityUpdate.bind(this),o.window),this.bindScrollWatchers(),this.visibilityCalculator()}return o(t,[{key:"bindScrollWatchers",value:function(){for(var t=this.el.parentNode;t&&(this._handlers.push({element:t,event:"scroll",handler:this.visibilityCalculator}),t.addEventListener("scroll",this.visibilityCalculator),t!==t.parentNode&&t!==document);)t=t.parentNode}},{key:"onVisibilityUpdate",value:function(t){var e=this.currentVisibility>=this.thresholdPercent,n=t>=this.thresholdPercent;if(null===this.currentVisibility||e!==n)return this.currentVisibility=t,void this.onThresholdChange(n);this.currentVisibility=t}},{key:"destruct",value:function(){this._handlers.forEach((function(t){t.element.removeEventListener(t.event,t.handler)}))}}]),t}();function vt(t){return g(t)+""}function yt(t){var e=arguments.length>1&&void 0!==arguments[1]?arguments[1]:" ";return t&&t.length?t.map(vt).join(e):""}function dt(t){return vt(t.x)+","+vt(t.y)}function gt(t){if(!t)return"transparent";if(null==t.a||t.a>=1){var e=function(t){return 1===(t=parseInt(t).toString(16)).length?"0"+t:t},n=function(t){return t.charAt(0)===t.charAt(1)},r=e(t.r),i=e(t.g),o=e(t.b);return n(r)&&n(i)&&n(o)&&(r=r.charAt(0),i=i.charAt(0),o=o.charAt(0)),"#"+r+i+o}return"rgba("+t.r+","+t.g+","+t.b+","+t.a+")"}function pt(t){return t?"url(#"+t+")":"none"}var mt={f:null,i:V,u:function(t,e){return function(n){var r=e(n);t.setAttribute("rx",vt(r.x)),t.setAttribute("ry",vt(r.y))}}},bt={f:null,i:function(t,e,n){return 0===t?e:1===t?n:{width:C(t,e.width,n.width),height:C(t,e.height,n.height)}},u:function(t,e){return function(n){var r=e(n);t.setAttribute("width",vt(r.width)),t.setAttribute("height",vt(r.height))}}};Object.freeze({M:2,L:2,Z:0,H:1,V:1,C:6,Q:4,T:2,S:4,A:7});var wt={},kt=null;function _t(t){var e=function(){if(kt)return kt;if("object"!==("undefined"==typeof document?"undefined":n(document))||!document.createElementNS)return{};var t=document.createElementNS("http://www.w3.org/2000/svg","svg");return t&&t.style?(t.style.position="absolute",t.style.opacity="0.01",t.style.zIndex="-9999",t.style.left="-9999px",t.style.width="1px",t.style.height="1px",kt={svg:t}):{}}().svg;if(!e)return function(t){return null};var r=document.createElementNS(e.namespaceURI,"path");r.setAttributeNS(null,"d",t),r.setAttributeNS(null,"fill","none"),r.setAttributeNS(null,"stroke","none"),e.appendChild(r);var i=r.getTotalLength();return function(t){var e=r.getPointAtLength(i*t);return{x:e.x,y:e.y}}}function At(t){return wt[t]?wt[t]:wt[t]=_t(t)}function xt(t,e,n,r){if(!t||!r)return!1;var i=["M",t.x,t.y];if(e&&n&&(i.push("C"),i.push(e.x),i.push(e.y),i.push(n.x),i.push(n.y)),e?!n:n){var o=e||n;i.push("Q"),i.push(o.x),i.push(o.y)}return e||n||i.push("L"),i.push(r.x),i.push(r.y),i.join(" ")}function Ot(t,e,n,r){var i=arguments.length>4&&void 0!==arguments[4]?arguments[4]:1,o=xt(t,e,n,r),u=At(o);try{return u(i)}catch(t){return null}}function St(t,e,n){return t+(e-t)*n}function Et(t,e,n){var r=arguments.length>3&&void 0!==arguments[3]&&arguments[3],i={x:St(t.x,e.x,n),y:St(t.y,e.y,n)};return r&&(i.a=Pt(t,e)),i}function Pt(t,e){return Math.atan2(e.y-t.y,e.x-t.x)}function jt(t,e,n,r){var i=1-r;return i*i*t+2*i*r*e+r*r*n}function Mt(t,e,n,r){return 2*(1-r)*(e-t)+2*r*(n-e)}function Bt(t,e,n,r){var i=arguments.length>4&&void 0!==arguments[4]&&arguments[4],o=Ot(t,e,null,n,r);return o||(o={x:jt(t.x,e.x,n.x,r),y:jt(t.y,e.y,n.y,r)}),i&&(o.a=Tt(t,e,n,r)),o}function Tt(t,e,n,r){return Math.atan2(Mt(t.y,e.y,n.y,r),Mt(t.x,e.x,n.x,r))}function It(t,e,n,r,i){var o=i*i;return i*o*(r-t+3*(e-n))+3*o*(t+n-2*e)+3*i*(e-t)+t}function Rt(t,e,n,r,i){var o=1-i;return 3*(o*o*(e-t)+2*o*i*(n-e)+i*i*(r-n))}function Nt(t,e,n,r,i){var o=arguments.length>5&&void 0!==arguments[5]&&arguments[5],u=Ot(t,e,n,r,i);return u||(u={x:It(t.x,e.x,n.x,r.x,i),y:It(t.y,e.y,n.y,r.y,i)}),o&&(u.a=Ft(t,e,n,r,i)),u}function Ft(t,e,n,r,i){return Math.atan2(Rt(t.y,e.y,n.y,r.y,i),Rt(t.x,e.x,n.x,r.x,i))}function Ct(t,e,n){var r=arguments.length>3&&void 0!==arguments[3]&&arguments[3];if(Lt(e)){if(Vt(n))return Bt(e,n.start,n,t,r)}else if(Lt(n)){if(qt(e))return Bt(e,e.end,n,t,r)}else{if(qt(e))return Vt(n)?Nt(e,e.end,n.start,n,t,r):Bt(e,e.end,n,t,r);if(Vt(n))return Bt(e,n.start,n,t,r)}return Et(e,n,t,r)}function Dt(t,e,n){var r=Ct(t,e,n,!0);return r.a=function(t){return arguments.length>1&&void 0!==arguments[1]&&arguments[1]?t+Math.PI:t}(r.a)/m,r}function Lt(t){return!t.type||"corner"===t.type}function Vt(t){return null!=t.start&&!Lt(t)}function qt(t){return null!=t.end&&!Lt(t)}var Gt=new R;var zt={f:function(t){return t?t.join(" "):""},i:function(t,e,r){if(0===t)return e;if(1===t)return r;var i=e.length;if(i!==r.length)return N(t,e,r);for(var o,u=new Array(i),a=0;a<i;a++){if((o=n(e[a]))!==n(r[a]))return N(t,e,r);if("number"===o)u[a]=F(t,e[a],r[a]);else{if(e[a]!==r[a])return N(t,e,r);u[a]=e[a]}}return u}},Yt={f:null,i:z,u:function(t,e){return function(n){var r=e(n);t.setAttribute("x1",vt(r[0])),t.setAttribute("y1",vt(r[1])),t.setAttribute("x2",vt(r[2])),t.setAttribute("y2",vt(r[3]))}}},Ut={f:vt,i:F},Wt={f:vt,i:D},$t={f:function(t){var e=arguments.length>1&&void 0!==arguments[1]?arguments[1]:" ";return t&&t.length>0&&(t=t.map((function(t){return g(t,4)}))),yt(t,e)},i:function(t,e,n){var r,i,o,u=e.length,a=n.length;if(u!==a)if(0===u)e=Y(u=a,0);else if(0===a)a=u,n=Y(u,0);else{var s=(o=(r=u)*(i=a)/function(t,e){for(var n;e;)n=e,e=t%e,t=n;return t||1}(r,i))<0?-o:o;e=U(e,Math.floor(s/u)),n=U(n,Math.floor(s/a)),u=a=s}for(var l=[],f=0;f<u;f++)l.push(g(C(t,e[f],n[f])));return l}};function Ht(t,e,n){return t.map((function(t){return function(t,e,n){var r=t.v;if(!r||"g"!==r.t||r.s||!r.v||!r.r)return t;var i=n.getElementById(r.r),o=i&&i.querySelectorAll("stop")||[];return r.s=r.v.map((function(t,e){var n=o[e]&&o[e].getAttribute("offset");return{c:t,o:n=g(parseInt(n)/100)}})),delete r.v,t}(t,0,n)}))}var Qt={gt:"gradientTransform",c:{x:"cx",y:"cy"},rd:"r",f:{x:"x1",y:"y1"},to:{x:"x2",y:"y2"}};function Xt(t,e,r,i,o,u,a,s){return Ht(t,0,s),e=function(t,e,n){for(var r,i,o,u=t.length-1,a={},s=0;s<=u;s++)(r=t[s]).e&&(r.e=e(r.e)),r.v&&"g"===(i=r.v).t&&i.r&&(o=n.getElementById(i.r))&&(a[i.r]={e:o,s:o.querySelectorAll("stop")});return a}(t,i,s),function(i){var o=r(i,t,Jt);if(!o)return"none";if("c"===o.t)return gt(o.v);if("g"===o.t){if(!e[o.r])return pt(o.r);var u=e[o.r];return function(t,e){for(var n=t.s,r=n.length;r<e.length;r++){var i=n[n.length-1].cloneNode();i.id=te(i.id),t.e.appendChild(i),n=t.s=t.e.querySelectorAll("stop")}for(var o=0,u=n.length,a=e.length-1;o<u;o++)n[o].setAttribute("stop-color",gt(e[Math.min(o,a)].c)),n[o].setAttribute("offset",e[Math.min(o,a)].o)}(u,o.s),Object.keys(Qt).forEach((function(t){if(void 0!==o[t])if("object"!==n(Qt[t])){var e,r="gt"===t?(e=o[t],Array.isArray(e)?"matrix("+e.join(" ")+")":""):o[t],i=Qt[t];u.e.setAttribute(i,r)}else Object.keys(Qt[t]).forEach((function(e){if(void 0!==o[t][e]){var n=o[t][e],r=Qt[t][e];u.e.setAttribute(r,n)}}))})),pt(o.r)}return"none"}}function Jt(t,n,r){if(0===t)return n;if(1===t)return r;if(n&&r){var i=n.t;if(i===r.t)switch(n.t){case"c":return{t:i,v:G(t,n.v,r.v)};case"g":if(n.r===r.r){var o={t:i,s:Kt(t,n.s,r.s),r:n.r};return n.gt&&r.gt&&(o.gt=z(t,n.gt,r.gt)),n.c?(o.c=L(t,n.c,r.c),o.rd=C(t,n.rd,r.rd)):n.f&&(o.f=L(t,n.f,r.f),o.to=L(t,n.to,r.to)),o}}if("c"===n.t&&"g"===r.t||"c"===r.t&&"g"===n.t){var u="c"===n.t?n:r,a="g"===n.t?e({},n):e({},r),s=a.s.map((function(t){return{c:u.v,o:t.o}}));return a.s="c"===n.t?Kt(t,s,a.s):Kt(t,a.s,s),a}}return N(t,n,r)}function Kt(t,e,n){if(e.length===n.length)return e.map((function(e,r){return Zt(t,e,n[r])}));for(var r=Math.max(e.length,n.length),i=[],o=0;o<r;o++){var u=Zt(t,e[Math.min(o,e.length-1)],n[Math.min(o,n.length-1)]);i.push(u)}return i}function Zt(t,e,n){return{o:D(t,e.o,n.o||0),c:G(t,e.c,n.c||{})}}function te(t){return t.replace(/-fill-([0-9]+)$/,(function(t,e){return"-fill-"+(+e+1)}))}var ee={blur:V,brightness:C,contrast:C,"drop-shadow":function(t,e,n){return 0===t?e:1===t?n:{blur:V(t,e.blur,n.blur),offset:L(t,e.offset,n.offset),color:G(t,e.color,n.color)}},grayscale:C,"hue-rotate":F,invert:C,opacity:C,saturate:C,sepia:C};function ne(t,e,n){if(0===t)return e;if(1===t)return n;var r=e.length;if(r!==n.length)return N(t,e,n);for(var i,o=[],u=0;u<r;u++){if(e[u].type!==n[u].type)return e;if(!(i=ee[e[u].type]))return N(t,e,n);o.push({type:e.type,value:i(t,e[u].value,n[u].value)})}return o}var re={blur:function(t){return t?function(e){t.setAttribute("stdDeviation",dt(e))}:null},brightness:function(t,e,n){return(t=oe(n,e))?function(e){e=vt(e),t.map((function(t){return t.setAttribute("slope",e)}))}:null},contrast:function(t,e,n){return(t=oe(n,e))?function(e){var n=vt((1-e)/2);e=vt(e),t.map((function(t){t.setAttribute("slope",e),t.setAttribute("intercept",n)}))}:null},"drop-shadow":function(t,e,n){var r=n.getElementById(e+"-blur");if(!r)return null;var i=n.getElementById(e+"-offset");if(!i)return null;var o=n.getElementById(e+"-flood");return o?function(t){r.setAttribute("stdDeviation",dt(t.blur)),i.setAttribute("dx",vt(t.offset.x)),i.setAttribute("dy",vt(t.offset.y)),o.setAttribute("flood-color",gt(t.color))}:null},grayscale:function(t){return t?function(e){t.setAttribute("values",yt(function(t){return[.2126+.7874*(t=1-t),.7152-.7152*t,.0722-.0722*t,0,0,.2126-.2126*t,.7152+.2848*t,.0722-.0722*t,0,0,.2126-.2126*t,.7152-.7152*t,.0722+.9278*t,0,0,0,0,0,1,0]}(e)))}:null},"hue-rotate":function(t){return t?function(e){return t.setAttribute("values",vt(e))}:null},invert:function(t,e,n){return(t=oe(n,e))?function(e){e=vt(e)+" "+vt(1-e),t.map((function(t){return t.setAttribute("tableValues",e)}))}:null},opacity:function(t,e,n){return(t=n.getElementById(e+"-A"))?function(e){return t.setAttribute("tableValues","0 "+vt(e))}:null},saturate:function(t){return t?function(e){return t.setAttribute("values",vt(e))}:null},sepia:function(t){return t?function(e){return t.setAttribute("values",yt(function(t){return[.393+.607*(t=1-t),.769-.769*t,.189-.189*t,0,0,.349-.349*t,.686+.314*t,.168-.168*t,0,0,.272-.272*t,.534-.534*t,.131+.869*t,0,0,0,0,0,1,0]}(e)))}:null}};var ie=["R","G","B"];function oe(t,e){var n=ie.map((function(n){return t.getElementById(e+"-"+n)||null}));return-1!==n.indexOf(null)?null:n}var ue={fill:Xt,"fill-opacity":Wt,stroke:Xt,"stroke-opacity":Wt,"stroke-width":Ut,"stroke-dashoffset":{f:vt,i:F},"stroke-dasharray":$t,opacity:Wt,transform:function(t,e,r,i){if(!(t=function(t,e){if(!t||"object"!==n(t))return null;var r=!1;for(var i in t)t.hasOwnProperty(i)&&(t[i]&&t[i].length?(t[i].forEach((function(t){t.e&&(t.e=e(t.e))})),r=!0):delete t[i]);return r?t:null}(t,i)))return null;var o=function(n,i,o){var u=arguments.length>3&&void 0!==arguments[3]?arguments[3]:null;return t[n]?r(i,t[n],o):e&&e[n]?e[n]:u};return e&&e.a&&t.o?function(e){var n=r(e,t.o,Dt);return Gt.recomposeSelf(n,o("r",e,F,0)+n.a,o("k",e,L),o("s",e,L),o("t",e,L)).toString()}:function(t){return Gt.recomposeSelf(o("o",t,Ct,null),o("r",t,F,0),o("k",t,L),o("s",t,L),o("t",t,L)).toString()}},"#filter":function(t,e,n,r,i,o,u,a){if(!e.items||!t||!t.length)return null;var s=function(t,e){var n=(t=t.map((function(t){return t&&re[t[0]]?(e.getElementById(t[1]),re[t[0]](e.getElementById(t[1]),t[1],e)):null}))).length;return function(e){for(var r=0;r<n;r++)t[r]&&t[r](e[r].value)}}(e.items,a);return s?(t=function(t,e){return t.map((function(t){return t.e=e(t.e),t}))}(t,r),function(e){s(n(e,t,ne))}):null},"#line":Yt,points:{f:yt,i:z},d:zt,r:Ut,"#size":bt,"#radius":mt,_:function(t,e){if(Array.isArray(t))for(var n=0;n<t.length;n++)this[t[n]]=e;else this[t]=e}},ae={currentTime:"offset",duration:"duration",hasEnded:function(){return this.reachedToEnd()},isAlternate:"alternate",isPlaying:"_running",isRollingBack:"_rollingBack",state:function(t,e){return e.isPlaying?e.isRollingBack?"rollback":"playing":e.hasEnded?"ended":"paused"},totalTime:"maxFiniteDuration",iterations:"iterations",direction:"direction",fill:"fill",isReversed:function(t,e){return-1===e.direction},isBackwards:function(t,e){return-1===e.fill},isInfinite:function(t,e){return 0===e.iterations},speed:"speed",fps:"fps"},se={destruct:"destruct",pause:"pause",play:function(t,e){return le(t,e.hasEnded?"restart":"play",e)},restart:"restart",reverse:function(t,e){return le(t,"reverse",e,[!0])},seek:"seek",seekBy:"seekBy",seekTo:"seekTo",stop:"stop",toggle:"toggle",togglePlay:"toggle",set:"set"};function le(t,e,n){var r=arguments.length>3&&void 0!==arguments[3]?arguments[3]:[];return function(){var i,o=Array.prototype.slice.call(arguments);return o.unshift.apply(o,v(r)),(i=t[e]).call.apply(i,[t].concat(v(o))),n}}var fe=function t(e){r(this,t);var n={},i=["on","off"],o={get:function(t,e,r){return ae[e]?"function"==typeof ae[e]?ae[e].call(t,t,r):t[ae[e]]:se[e]?"function"==typeof se[e]?se[e].call(t,t,r):le(t,se[e],r):-1!==i.indexOf(e)?n[e]:"ready"===e?function(t){return t&&t.call(r,r),r}:void 0},set:function(t,e,r){return-1!==i.indexOf(e)&&(n[e]=r)},ownKeys:function(t){return Object.keys(ae)},has:function(t,e){return void 0!==ae[e]}};if("function"==typeof Proxy)return new Proxy(e,o);var u=Object.keys(ae).concat(Object.keys(se)).concat(i),a={};return u.forEach((function(t){var n={enumerable:!1,configurable:!1,get:function(){return o.get(e,t,a)}};-1!==i.indexOf(t)&&(n.set=function(n){return o.set(e,t,n)}),Object.defineProperty(a,t,n)})),a};function ce(t){t||(t=this);var e={};this.on=function(t,n){var r=arguments.length>2&&void 0!==arguments[2]&&arguments[2];return"function"==typeof n&&(t.split(/[, ]+/g).forEach((function(t){return e[t]=e[t]||[],r?e[t].unshift(n):e[t].push(n)})),!0)},this.off=function(t,n){for(var r in e)if(e.hasOwnProperty(r)&&r.substr(0,t.length)===t)if(n)for(var i=0;i<e[r].length;i++)e[r][i]===n&&(e[r][i]=null);else e[r]=null},this.trigger=function(){var n,r=Array.prototype.slice.call(arguments),i=r[0],o=r.slice(1);t:for(var u in e)if(e.hasOwnProperty(u)&&e[u]&&(u===i||u.substr(0,i.length+1)===i+"."))for(var a=0;a<(e[u]||[]).length;a++)if(e[u][a]&&!1===(n=e[u][a].apply(t,o)))break t;return n}}var he=!0,ve=["iterations","speed","fps","direction","fill","alternate"],ye=function(t){!function(t,e){if("function"!=typeof e&&null!==e)throw new TypeError("Super expression must either be null or a function");t.prototype=Object.create(e&&e.prototype,{constructor:{value:t,writable:!0,configurable:!0}}),e&&s(t,e)}(u,t);var e,n,i=(e=u,n=l(),function(){var t,r=a(e);if(n){var i=a(this).constructor;t=Reflect.construct(r,arguments,i)}else t=r.apply(this,arguments);return c(this,t)});function u(t,e){var n,o=arguments.length>2&&void 0!==arguments[2]?arguments[2]:null;return r(this,u),(n=i.call(this,t,e,o))._handlers=[],n}return o(u,[{key:"_adjustOffset",value:function(){var t=arguments.length>0&&void 0!==arguments[0]&&arguments[0],e=this.alternate?2*this.duration:this.duration;if(t){if(!this._rollingBack&&0===this.offset)return void(this.offset=e);this._rollingBack&&(this.offset,this.maxFiniteDuration)}!this._rollingBack||this.rollbackStartOffset<=this.duration?0!==this.iterations&&(this.offset=Math.min(this.offset,this.maxFiniteDuration)):(this.offset=this.rollbackStartOffset-(this.rollbackStartOffset-this.offset)%e,this.rollbackStartOffset=0)}},{key:"reverse",value:function(){var t=arguments.length>0&&void 0!==arguments[0]&&arguments[0];if(!this._running)return this._adjustOffset(t),this._rollingBack=!this._rollingBack,t&&this.play(!1),void this.trigger("reverse",this.offset);this.pause(!1,!1),this._adjustOffset(),this._rollingBack=!this._rollingBack,this.play(!1),this.trigger("reverse",this.offset)}},{key:"play",value:function(){var t=arguments.length>0&&void 0!==arguments[0]?arguments[0]:he,e=h(a(u.prototype),"play",this).call(this);return t===he&&this.trigger("play",this.offset),e}},{key:"pause",value:function(){var t=arguments.length>0&&void 0!==arguments[0]&&arguments[0],e=arguments.length>1&&void 0!==arguments[1]?arguments[1]:he,n=h(a(u.prototype),"pause",this).call(this);return e===he&&this.trigger(t?"end":"pause",this.offset),n}},{key:"restart",value:function(){var t=h(a(u.prototype),"restart",this).call(this,!1);return this.trigger("restart",this.offset),t}},{key:"stop",value:function(){var t=arguments.length>0&&void 0!==arguments[0]?arguments[0]:he,e=h(a(u.prototype),"stop",this).call(this);return t===he&&this.trigger("stop",this.offset),e}},{key:"_apply",value:function(t){var e=this,n=arguments.length>2&&void 0!==arguments[2]?arguments[2]:he,r=h(a(u.prototype),"_apply",this).call(this,t);if(n===he){var i=function(){return e.trigger("keyframe",t)};window.requestAnimationFrame(i)}return r}},{key:"seekTo",value:function(t){var e,n,r,i=this._running;i&&this.pause(!1,!1),this.offset=this.iterations>0?(e=t,n=0,r=this.maxFiniteDuration,e<n?n:e>r?r:e):Math.max(t,0),this._apply(this.offset),i&&this.play(!1)}},{key:"seek",value:function(t){return this.seekTo(Math.round(t/100*this.maxFiniteDuration))}},{key:"seekBy",value:function(t){return this.seekTo(this.offset+t)}},{key:"toggle",value:function(){return this._running?this.pause():this.reachedToEnd()?this.restart():this.play()}},{key:"set",value:function(t,e){if(ve.includes(t)){var n=this._running;n&&this.pause(!1,!1),this._settings[t]=e,n?this.play(!1):this._apply(this.offset,{},!1)}}},{key:"destruct",value:function(){var t=this;this.stop(),this._handlers.forEach((function(t){t.element?t.element.removeEventListener(t.event,t.handler):t.callback&&t.callback.call&&t.callback.call()}));var e=function(){},n=Object.getOwnPropertyNames(Object.getPrototypeOf(this));n.push.apply(n,v(Object.getOwnPropertyNames(this))),n.forEach((function(n){"function"==typeof t[n]?t[n]=e:delete t[n]}))}}],[{key:"build",value:function(t){var e=h(a(u),"build",this).call(this,t,ue);if(!e)return null;var n=e.el,r=e.options,i=e.player,o=new fe(i),s=new ce(o);o.on=s.on,o.off=s.off,i.trigger=s.trigger;var l=n.svgatorPlayer&&n.svgatorPlayer.ready&&n.svgatorPlayer.ready.call&&n.svgatorPlayer.ready.call();n.svgatorPlayer=o,function(t,e,n){if("click"===n.start){var r=function(){switch(n.click){case"freeze":return!t._running&&t.reachedToEnd()?t.restart():t.toggle();case"restart":return t.offset>0?t.restart():t.play();case"reverse":return t._running?t.reverse():t.reachedToEnd()?1===t.fill?t.reverse(!0):t.restart():t.play();case"none":default:if(t._running)return;return t.reachedToEnd()?t.restart():t.play()}};return t._handlers.push({element:e,event:"click",handler:r}),void e.addEventListener("click",r)}if("hover"===n.start){var i=function(){return t.reachedToEnd()?t.restart():t._rollingBack?t.reverse():t.play()};t._handlers.push({element:e,event:"mouseenter",handler:i}),e.addEventListener("mouseenter",i);var o=function(){switch(n.hover){case"freeze":return t.pause();case"reset":return t.stop();case"reverse":if(t.reverse(),t._running)return;return t.play();case"none":default:return}};return t._handlers.push({element:e,event:"mouseleave",handler:o}),void e.addEventListener("mouseleave",o)}if("scroll"===n.start){var u=new ht(e,n.scroll||25,(function(e){e?t.reachedToEnd()?t.restart():t.play():t.pause()}));return void t._handlers.push({callback:function(){return u.destruct()}})}if("programmatic"===n.start)return;t.play()}(i,n,r),function(t,e,n){var r;"function"==typeof Event?r=new Event("ready"):(r=document.createEvent("Event")).initEvent("ready",!0,!0);if(t.dispatchEvent(r),!n||!n.length)return;n.forEach((function(t){return e.ready(t)}))}(n,n.svgatorPlayer,l)}}]),u}(ct);return ye.init(),ye}));
(function(s,i,o,w,d,a,b){(a=Array.from(d.querySelectorAll('svg#' + i.root)).filter(n=> !n.svgatorPlayer)[0]||{}).svgatorPlayer={ready:(function(a){b=[];return function(c){return c?(b.push(c),a.svgatorPlayer):b}})(a)};w[o]=w[o]||{};w[o][s]=w[o][s]||[];w[o][s].push(i);})('91c80d77',{"root":"eOw0bMDuHcA1","version":"2022-05-04","animations":[{"elements":{"eOw0bMDuHcA9":{"transform":{"data":{"t":{"x":-7719.105957,"y":-4231.10144}},"keys":{"o":[{"t":0,"v":{"x":-59.779754,"y":5569.32742,"type":"corner"}},{"t":6400,"v":{"x":26211.709156,"y":14021.28096,"type":"corner"}}]}}}},"s":"MDNA1ZDlkNDQ4NDjk3OTQ4Mzk2POGI5MTkwNDQK1YzU4NTZVNTRI1MjRlNDRLOQDY4Yjk0ODc4WNTk2UzhiOTEQ5MDQ0NWM1MzNRlNDQ4Yjk2OBDc5NDgzOTY4FYlU5MTkwOTUI0NDVjNTI0ZTIQ0ODg4YjhlUWjhlNDQ1YzUzLNGU0NFg4MzhBlOTY4Nzk0OTDA4M1E5Njg3NKDRLNWM4ODgzNOGU5NTg3UzRJlNDQ5NTkyODOc4Nzg2NDQ1YOzUzTzRlNDQ4XODkyOTU0NDVDjNTM1MjUyOWUY/"}],"options":"MDWAxMDgyUTI5NL2E3YjY4Vzc5TN2IyOTQxMjkY3Mzc2Njg2YjOI5ODQ/"},'__SVGATOR_PLAYER__',window,document)
]]></script>
</svg>
